<svg width="60" height="92" viewBox="0 0 60 92" fill="none" xmlns="http://www.w3.org/2000/svg">
<path d="M29.924 0C36.1847 0 38.1519 4.49055 39.8025 8.97407C40.4958 10.878 56.7652 55.4316 57.2544 56.7689C57.3846 57.1419 57.2966 57.7543 56.723 57.976C56.1458 58.1942 47.6926 61.4811 47.2245 61.6571C46.7565 61.8366 46.2321 61.5762 46.0632 61.1081C45.8872 60.6471 42.3785 50.934 41.9844 49.8501H17.8706C17.4905 50.934 13.9396 60.6682 13.7812 61.1081C13.6193 61.555 13.1161 61.8577 12.6163 61.6571C12.1166 61.46 3.6317 58.1731 3.12493 57.976C2.63928 57.7859 2.41756 57.2334 2.58649 56.7689C3.18476 55.1008 19.2079 11.2616 20.0243 8.97407C21.615 4.55742 23.6491 0 29.924 0ZM1.29845 79.7214C0.791675 79.7214 0.386963 80.1437 0.386963 80.6575V91.0709C0.386963 91.5847 0.791675 92 1.29845 92H58.5248C59.0422 92 59.4469 91.5847 59.4469 91.0709V80.6575C59.4469 80.1437 59.0422 79.7214 58.5248 79.7214H1.29845ZM29.8676 14.5485L21.7171 39.0249H38.1519L29.9732 14.5485H29.8676Z" fill="white"/>
</svg>
