<svg width="99" height="92" viewBox="0 0 99 92" fill="none" xmlns="http://www.w3.org/2000/svg">
<path fill-rule="evenodd" clip-rule="evenodd" d="M47.0124 22.7732C71.4234 22.8942 98.631 40.0985 98.62 49.1319C98.6027 62.2736 83.6061 63.1015 49.3966 61.5824C19.7026 60.2635 14.1497 63.6155 14.0082 72.9062C13.8787 81.4114 34.5362 90.4983 61.878 90.11C54.4334 92.1185 46.6744 92.7112 38.8357 90.9793C25.3252 87.9951 10.1955 78.8448 10.0812 71.428C9.8402 55.7187 35.9636 54.0843 49.7079 54.589C66.4091 55.202 91.5254 56.0373 91.9473 47.922C92.5462 36.4095 62.0667 25.6081 47.2199 25.6479L47.0124 22.7732Z" fill="white"/>
<path fill-rule="evenodd" clip-rule="evenodd" d="M25.2512 5.59664C29.1289 2.66481 36.7962 0.0253689 48.0095 0.000216403C72.9727 -0.0558526 85.3902 10.7959 85.8948 18.1551C86.52 27.2938 75.4015 30.4399 48.8269 28.9386C21.4663 27.3928 4.12734 28.9386 3.99162 36.7197C3.8407 45.3181 38.0575 66.0673 62.9988 66.0673C80.1601 66.0673 89.7138 62.8138 94.8753 60.2692C94.0327 62.7076 92.9748 65.0662 91.7139 67.3171C84.7116 68.6449 75.2836 70.1394 62.8625 69.6165C42.433 68.7555 0.583984 50.7794 0.583984 36.7202C0.583984 22.6605 33.8361 20.8857 48.4177 20.8857C62.9998 20.8857 80.8518 24.025 80.0338 15.4255C79.2158 6.82597 63.2718 3.95911 53.5959 3.14061C43.9217 2.32105 33.1559 3.82234 25.2512 5.59664Z" fill="white"/>
<path fill-rule="evenodd" clip-rule="evenodd" d="M10.2608 17.593C12.787 14.6973 14.4775 12.8983 17.9144 10.337C21.7481 8.62296 32.1696 5.77549 48.8562 5.85566C74.3738 5.97723 92.9484 18.5629 93.0868 27.0419C93.2649 37.968 79.5453 41.6256 49.0275 40.0468C20.447 38.568 5.29681 40.4162 5.15533 48.5991C4.99865 57.6435 36.4974 76.2118 62.5375 75.5882C75.1803 75.2853 83.3024 73.618 88.9046 71.7226C87.3111 73.9251 85.5275 75.9836 83.5744 77.8745C77.6437 78.8701 70.678 79.6493 62.9478 79.3207C41.6128 78.4153 0.675049 61.9095 0.675049 47.1219C0.675049 32.3344 34.3034 32.9181 49.5232 33.4228C66.2265 33.9772 86.5628 33.5894 86.5985 25.4636C86.6446 15.0594 59.4841 9.24443 48.3259 9.2853C30.5253 9.34976 21.4499 12.5556 10.2608 17.593Z" fill="white"/>
<path fill-rule="evenodd" clip-rule="evenodd" d="M3.84997 27.8261C4.9614 25.5681 5.75632 23.9584 7.21202 21.7748C17.316 16.9199 29.5883 14.6389 46.2743 14.7222C70.6853 14.8437 96.9717 28.9071 96.9597 37.9405C96.9434 51.0827 83.4213 52.0956 49.2119 50.576C19.5173 49.2565 8.24798 52.4236 8.10598 61.7153C7.96816 70.7598 36.4973 83.9711 62.5375 83.347C69.0771 83.1898 74.4063 82.6689 78.8043 81.9384C76.1321 83.933 73.2668 85.655 70.2514 87.0785C67.9044 87.1759 65.4677 87.1864 62.9478 87.08C41.6127 86.174 3.62622 75.0252 3.62622 60.2371C3.62622 44.5257 34.4883 43.4478 49.7076 43.9519C66.4104 44.5058 90.2523 44.8574 90.2869 36.7311C90.333 26.3269 61.3281 17.5571 46.4818 17.5974C28.6802 17.6456 14.1174 22.4193 3.84997 27.8261Z" fill="white"/>
</svg>
