<svg width="97" height="92" viewBox="0 0 97 92" fill="none" xmlns="http://www.w3.org/2000/svg">
<path d="M88.4221 17.8786C87.3797 16.455 86.3484 15.0315 85.4405 13.5967L29.7081 45.6102L2.80598 30.1863C2.18854 31.8506 1.81112 33.5944 1.68506 35.365L29.966 51.7417L88.4221 17.8786Z" fill="white"/>
<path d="M29.7085 57.6605L0.811091 41.0708C0.59725 42.0912 0.510653 43.1341 0.553279 44.1758C0.553279 56.8596 5.59188 69.0238 14.5607 77.9926C23.5294 86.9614 35.6937 92 48.3775 92C61.0612 92 73.2255 86.9614 82.1943 77.9926C91.1631 69.0238 96.2017 56.8596 96.2017 44.1758C96.2553 36.6083 94.4786 29.1401 91.023 22.4075L29.7085 57.6605Z" fill="white"/>
<path d="M81.5514 9.58394C80.1894 8.29837 78.7601 7.08607 77.2695 5.95215L29.7087 33.5605L6.77463 20.4681C6.00119 21.8917 5.21654 23.4498 4.30859 25.1312L29.4509 39.6471L81.5514 9.58394Z" fill="white"/>
<path d="M72.6063 2.84715C70.8062 1.76955 68.9335 0.818209 67.0017 0L29.7086 21.4769L12.9956 12.0499C11.8747 13.1708 10.7537 14.6393 9.63281 16.0628L29.5853 27.4738L72.6063 2.84715Z" fill="white"/>
</svg>
