<svg width="93" height="92" viewBox="0 0 93 92" fill="none" xmlns="http://www.w3.org/2000/svg">
<path d="M46.2593 0C20.8215 0 0.259277 20.5622 0.259277 46C0.259277 71.4378 20.8215 92 46.2593 92C71.6971 92 92.2593 71.4378 92.2593 46C92.0473 20.5622 71.4851 0 46.2593 0ZM39.6878 65.5023L36.2961 75.4654C23.5772 71.2258 15.098 59.1429 15.098 45.576C15.098 32.0092 23.5772 20.1382 36.5081 15.6866L39.8998 25.6498C31.4206 28.4055 25.909 36.4608 25.909 45.3641C25.6971 54.9032 31.2086 62.7465 39.6878 65.5023ZM55.3745 75.8894L52.1948 65.7143C60.886 62.9585 66.6095 54.9032 66.6095 45.788C66.6095 36.6728 60.886 28.8295 52.4067 26.0737L55.7984 15.8986C68.7293 20.1382 77.4206 32.2212 77.4206 45.788C77.4206 59.5668 68.5173 71.6498 55.3745 75.8894Z" fill="white"/>
</svg>
