<svg width="186" height="68" viewBox="0 0 186 68" fill="none" xmlns="http://www.w3.org/2000/svg">
<g clip-path="url(#clip0_62_166)">
<path d="M53.5816 8.69633H9.6851L12.8474 0H56.7439L53.5816 8.69633ZM52.0005 13.0445H8.08419L4.9219 21.7408H48.8184L52.0005 13.0445ZM47.257 26.0495H3.34076L0.178467 34.7458H44.0355L47.257 26.0495Z" fill="white"/>
<path d="M158.202 56.5064H166.108C167.231 56.6406 168.371 56.4962 169.425 56.086C170.48 55.6759 171.418 55.0125 172.155 54.1544C173.24 52.7352 173.786 50.9775 173.697 49.1936C173.771 48.0584 173.563 46.9226 173.09 45.8878C172.618 44.853 171.896 43.9516 170.989 43.2643C169.522 42.3041 167.777 41.8591 166.029 41.9994H158.202V56.5064ZM147.826 65.262V13.0446H181.8L178.816 21.8002H158.202V33.3623H166.602C173.381 33.3623 176.899 34.983 179.33 37.0583C181.068 38.5974 182.435 40.51 183.328 42.6528C184.222 44.7956 184.618 47.1128 184.488 49.4308C184.622 51.9268 184.13 54.4167 183.056 56.6741C181.983 58.9315 180.362 60.8848 178.342 62.3567C175.081 64.6098 171.661 65.2423 164.704 65.2423L147.826 65.262ZM117.744 65.262V21.7804H102.644V13.0446H144.564L141.58 21.8002H128.219V65.2818L117.744 65.262ZM75.9031 33.9553H81.8324C83.0451 34.0381 84.2634 33.9449 85.4493 33.6786C86.6827 33.2846 87.7456 32.4832 88.4638 31.4059C89.182 30.3286 89.5129 29.0393 89.4022 27.7493C89.5667 26.4674 89.2551 25.1698 88.5265 24.1024C87.7979 23.035 86.703 22.2721 85.4493 21.9583C84.1545 21.6577 82.8242 21.538 81.4964 21.6025H75.9031V33.9553ZM75.9031 42.9876V56.6843H83.1369C85.1305 56.9122 87.1349 56.3597 88.7302 55.1427C89.4654 54.4615 90.0414 53.6265 90.4172 52.6973C90.793 51.7682 90.9593 50.7675 90.9043 49.7668C90.9358 48.1678 90.4506 46.6013 89.5208 45.3C87.9791 43.3236 86.0818 42.948 82.8404 42.948L75.9031 42.9876ZM92.6238 37.4733V37.6512C94.3859 38.3296 96.0326 39.2763 97.5056 40.4577C98.9944 41.6933 100.171 43.2624 100.94 45.0377C101.71 46.8131 102.05 48.7447 101.933 50.6759C101.933 57.8109 98.138 62.9694 91.9123 64.511C89.4306 65.1176 86.8746 65.3639 84.3227 65.2423H65.5269V13.0446H82.2475C84.9032 12.9475 87.5604 13.1933 90.1532 13.7758C96.2011 15.3965 100.174 19.5668 100.174 26.1483C100.223 27.7175 99.9525 29.2803 99.3782 30.7414C98.8039 32.2025 97.9381 33.5314 96.8336 34.647C95.6605 35.8381 94.2634 36.7852 92.7226 37.4338L92.6238 37.4733Z" fill="white"/>
</g>
<defs>
<clipPath id="clip0_62_166">
<rect width="185.589" height="68" fill="white" transform="translate(0.149902)"/>
</clipPath>
</defs>
</svg>
