<svg width="36" height="36" viewBox="0 0 36 36" fill="none" xmlns="http://www.w3.org/2000/svg">
<g clip-path="url(#clip0_83_125)">
<path d="M35.4727 15.1437H33.143C32.8517 15.1437 32.6157 15.3797 32.6157 15.671V17.4176C32.6157 17.448 32.5909 17.4727 32.5605 17.4727H24.9891C24.6978 17.4727 24.4617 17.7087 24.4617 18V20.3297C24.4617 20.621 24.6978 20.8571 24.9891 20.8571H27.9563V22.6594V30.8133V32.6157H18.5824C18.552 32.6157 18.5273 32.591 18.5273 32.5606V27.3188C18.5273 27.0275 18.2913 26.7915 18 26.7915H15.6703C15.379 26.7915 15.143 27.0275 15.143 27.3188V32.5606C15.143 32.591 15.1182 32.6157 15.0879 32.6157H14.4504V31.3758C14.4504 30.9581 14.2139 30.595 13.868 30.4121V29.0661C13.868 27.8118 12.8476 26.7915 11.5933 26.7915C10.3391 26.7915 9.31873 27.8118 9.31873 29.0661V30.4121C8.97286 30.595 8.73633 30.9581 8.73633 31.3758V32.6157H3.43948C3.40903 32.6157 3.38435 32.591 3.38435 32.5606V26.6813H8.09888C8.7108 26.6813 9.20862 26.1835 9.20862 25.5716V20.8571H15.0879C15.1183 20.8571 15.143 20.8819 15.143 20.9122V22.6595C15.143 22.9508 15.379 23.1868 15.6703 23.1868H18C18.2913 23.1868 18.5273 22.9508 18.5273 22.6595V20.9122C18.5273 20.8818 18.5521 20.8571 18.5824 20.8571H20.3297C20.621 20.8571 20.857 20.6211 20.857 20.3298V18C20.857 17.7087 20.621 17.4727 20.3297 17.4727H18.5824C18.552 17.4727 18.5273 17.4479 18.5273 17.4176V15.6703C18.5273 15.379 18.2913 15.1429 18 15.1429H15.6703C15.379 15.1429 15.143 15.379 15.143 15.6703V17.4176C15.143 17.448 15.1182 17.4727 15.0879 17.4727H14.3601C14.0688 17.4727 13.8327 17.7087 13.8327 18C13.8327 18.2913 14.0688 18.5273 14.3601 18.5273H15.0879C15.6998 18.5273 16.1977 18.0295 16.1977 17.4176V16.1976H17.4727V17.4176C17.4727 18.0295 17.9705 18.5273 18.5824 18.5273H19.8023V19.8024H18.5824C17.9705 19.8024 17.4727 20.3002 17.4727 20.9121V22.1321H16.1977V20.9121C16.1977 20.3002 15.6998 19.8024 15.0879 19.8024H3.43948C2.82755 19.8024 2.32966 20.3002 2.32966 20.9121V32.5605C2.32966 33.1725 2.82755 33.6703 3.43948 33.6703H15.0879C15.6998 33.6703 16.1977 33.1725 16.1977 32.5605V27.8461H17.4727V32.5605C17.4727 33.1725 17.9705 33.6703 18.5824 33.6703H32.5605C33.1725 33.6703 33.6703 33.1725 33.6703 32.5605V20.9121C33.6703 20.3002 33.1725 19.8024 32.5605 19.8024H25.5164V18.5273H32.5605C33.1725 18.5273 33.6703 18.0295 33.6703 17.4176V16.1984H34.9453V34.8903C34.9453 34.9206 34.9206 34.9453 34.8903 34.9453H1.10974C1.07937 34.9453 1.05469 34.9206 1.05469 34.8903V1.10974C1.05469 1.07944 1.07944 1.05469 1.10974 1.05469H28.5938C28.8851 1.05469 29.1211 0.818648 29.1211 0.527344C29.1211 0.236039 28.8851 0 28.5938 0H1.10974C0.497813 0 0 0.497813 0 1.10974V34.8903C0 35.5022 0.497813 36 1.10974 36H34.8903C35.5022 36 36 35.5022 36 34.8903V15.671C36 15.3797 35.764 15.1437 35.4727 15.1437ZM3.43948 20.8571H5.2418V22.077C5.2418 22.3683 5.47784 22.6043 5.76914 22.6043C6.06045 22.6043 6.29648 22.3683 6.29648 22.077V20.8571H8.15393V25.5715C8.15393 25.6019 8.12918 25.6266 8.09888 25.6266H3.38435V20.9121C3.38435 20.8818 3.40903 20.8571 3.43948 20.8571ZM11.5933 27.8461C12.266 27.8461 12.8133 28.3933 12.8133 29.066V30.286H10.3735V29.066C10.3734 28.3933 10.9207 27.8461 11.5933 27.8461ZM9.79102 32.6157V31.3758C9.79102 31.3564 9.80684 31.3406 9.82617 31.3406H13.3606C13.3799 31.3406 13.3957 31.3564 13.3957 31.3758V32.6157H9.79102ZM32.6157 30.2859H29.0109V23.1867H32.6157V30.2859H32.6157ZM32.5605 32.6157H29.0109V31.3406H32.6157V32.5605C32.6157 32.591 32.591 32.6157 32.5605 32.6157ZM32.6157 20.9121V22.1321H29.0109V20.8571H32.5605C32.591 20.8571 32.6157 20.8818 32.6157 20.9121Z" fill="#C7954B"/>
<path d="M34.8902 0H30.7031C30.4118 0 30.1758 0.236039 30.1758 0.527344C30.1758 0.818648 30.4118 1.05469 30.7031 1.05469H34.8902C34.9206 1.05469 34.9453 1.07944 34.9453 1.10974V10.4847L33.6703 10.4848V3.43948C33.6703 2.82755 33.1724 2.32966 32.5605 2.32966H18.5824C17.9705 2.32966 17.4726 2.82755 17.4726 3.43948V10.4836H16.1977V3.43948C16.1977 2.82755 15.6998 2.32966 15.0879 2.32966H3.43946C2.82753 2.32966 2.32965 2.82755 2.32965 3.43948V17.4176C2.32965 18.0295 2.82753 18.5273 3.43946 18.5273H12.2507C12.542 18.5273 12.7781 18.2913 12.7781 18C12.7781 17.7087 12.542 17.4727 12.2507 17.4727H3.43946C3.40902 17.4727 3.38434 17.4479 3.38434 17.4176V3.43948C3.38434 3.40903 3.40909 3.38435 3.43946 3.38435H4.65939V13.943C4.65939 14.5439 5.14827 15.0328 5.74923 15.0328H12.7782C13.3791 15.0328 13.868 14.5439 13.868 13.943V3.38435H15.0879C15.1184 3.38435 15.143 3.4091 15.143 3.43948V11.0109C15.143 11.3022 15.3791 11.5383 15.6704 11.5383H18C18.2913 11.5383 18.5273 11.3022 18.5273 11.0109V3.43948C18.5273 3.40903 18.5521 3.38435 18.5824 3.38435H22.132V4.62424C22.132 5.2252 22.6209 5.71409 23.2218 5.71409H29.0859C29.6868 5.71409 30.1757 5.2252 30.1757 4.62424V3.38435H32.5604C32.5909 3.38435 32.6156 3.4091 32.6156 3.43948V11.0121C32.6156 11.152 32.6711 11.2861 32.77 11.3851C32.8689 11.4839 33.003 11.5395 33.1429 11.5395L35.4726 11.5394C35.7639 11.5394 35.9999 11.3033 35.9999 11.0121V1.10974C36 0.497813 35.5022 0 34.8902 0V0ZM10.4836 3.38435V4.62424C10.4836 4.64358 10.4678 4.6594 10.4484 4.6594H8.07889C8.05956 4.6594 8.04374 4.64358 8.04374 4.62424V3.38435H10.4836ZM12.7781 13.9781H5.74923C5.72989 13.9781 5.71407 13.9623 5.71407 13.943V8.04375H12.8133V13.943C12.8132 13.9623 12.7975 13.9781 12.7781 13.9781ZM12.8132 6.98906H5.71407V3.38435H6.98905V4.62424C6.98905 5.2252 7.47793 5.71409 8.07889 5.71409H10.4484C11.0494 5.71409 11.5383 5.2252 11.5383 4.62424V3.38435H12.8133V6.98906H12.8132ZM29.1211 4.62424C29.1211 4.64358 29.1053 4.6594 29.0859 4.6594H23.2219C23.2025 4.6594 23.1867 4.64358 23.1867 4.62424V3.38435H29.1211V4.62424Z" fill="#C7954B"/>
<path d="M30.8132 25.8078C31.1045 25.8078 31.3406 25.5718 31.3406 25.2805V24.698C31.3406 24.4067 31.1045 24.1707 30.8132 24.1707C30.5219 24.1707 30.2859 24.4067 30.2859 24.698V25.2805C30.2859 25.5718 30.522 25.8078 30.8132 25.8078Z" fill="#C7954B"/>
<path d="M30.8132 29.3022C31.1045 29.3022 31.3406 29.0662 31.3406 28.7749V28.1924C31.3406 27.9011 31.1045 27.665 30.8132 27.665C30.5219 27.665 30.2859 27.9011 30.2859 28.1924V28.7749C30.2859 29.0662 30.522 29.3022 30.8132 29.3022Z" fill="#C7954B"/>
<path d="M30.2508 12.7031C30.8518 12.7031 31.3406 12.2142 31.3406 11.6133V8.07886C31.3406 7.4779 30.8518 6.98901 30.2508 6.98901H22.0571C21.4561 6.98901 20.9672 7.4779 20.9672 8.07886V11.6133C20.9672 12.2142 21.4561 12.7031 22.0571 12.7031H30.2508ZM27.9563 8.0437V9.28352C27.9563 9.30286 27.9405 9.31868 27.9211 9.31868H24.3867C24.3674 9.31868 24.3516 9.30286 24.3516 9.28352V8.0437H27.9563ZM22.0219 11.6133V8.07886C22.0219 8.05952 22.0377 8.0437 22.0571 8.0437H23.2969V9.28352C23.2969 9.88448 23.7858 10.3734 24.3867 10.3734H27.9211C28.5221 10.3734 29.011 9.88448 29.011 9.28352V8.0437H30.2509C30.2702 8.0437 30.286 8.05952 30.286 8.07886V11.6133C30.286 11.6326 30.2702 11.6484 30.2509 11.6484H22.0571C22.0377 11.6484 22.0219 11.6326 22.0219 11.6133Z" fill="#C7954B"/>
</g>
<defs>
<clipPath id="clip0_83_125">
<rect width="36" height="36" fill="white"/>
</clipPath>
</defs>
</svg>
