<svg width="36" height="36" viewBox="0 0 36 36" fill="none" xmlns="http://www.w3.org/2000/svg">
<path d="M7.88933 6.47215C8.2066 6.47215 8.46379 6.21496 8.46379 5.8977C8.46379 5.58043 8.2066 5.32324 7.88933 5.32324C7.57207 5.32324 7.31488 5.58043 7.31488 5.8977C7.31488 6.21496 7.57207 6.47215 7.88933 6.47215Z" fill="#C7954B"/>
<path d="M5.59142 7.62156C5.90868 7.62156 6.16587 7.36437 6.16587 7.04711C6.16587 6.72985 5.90868 6.47266 5.59142 6.47266C5.27416 6.47266 5.01697 6.72985 5.01697 7.04711C5.01697 7.36437 5.27416 7.62156 5.59142 7.62156Z" fill="#C7954B"/>
<path d="M32.7447 4.97876H31.0213V0.574453C31.0213 0.257133 30.7641 0 30.4468 0H2.10637C1.78905 0 1.53192 0.257133 1.53192 0.574453V10.5319C1.53192 10.8492 1.78905 11.1064 2.10637 11.1064H30.4468C30.7641 11.1064 31.0213 10.8492 31.0213 10.5319V6.12766H32.7447C33.0615 6.12766 33.3192 6.38536 33.3192 6.70212V12.4468C33.3192 12.8014 33.0126 13.1659 32.6633 13.2267L17.3102 15.8967C16.4084 16.0536 15.7021 16.8934 15.7021 17.8085V20.6808H12.8298C12.5125 20.6808 12.2554 20.9379 12.2554 21.2553C12.2554 21.5726 12.5125 21.8297 12.8298 21.8297H13.0213V35.4255C13.0213 35.7429 13.2784 36 13.5957 36H18.9574C19.2747 36 19.5319 35.7429 19.5319 35.4255V21.8298H19.7233C20.0406 21.8298 20.2978 21.5726 20.2978 21.2553C20.2978 20.938 20.0406 20.6809 19.7233 20.6809H16.8511V17.8085C16.8511 17.4539 17.1577 17.0895 17.507 17.0286L32.8601 14.3586C33.7618 14.2017 34.4681 13.362 34.4681 12.4469V6.70212C34.4681 5.75191 33.695 4.97876 32.7447 4.97876ZM29.8724 9.95745H2.6809V1.14891H29.8724V9.95745ZM18.383 21.8298V34.8511H14.1702V21.8298H18.383Z" fill="#C7954B"/>
</svg>
