<svg width="36" height="36" viewBox="0 0 36 36" fill="none" xmlns="http://www.w3.org/2000/svg">
<g clip-path="url(#clip0_83_186)">
<path d="M35.808 22.879L33.7643 21.1957C33.7577 21.1902 33.7511 21.1847 33.7442 21.1792L22.0215 11.5238C22.0108 11.514 21.9996 11.5046 21.9878 11.4958L11.5914 2.9328C11.4969 2.85507 11.3785 2.8125 11.2563 2.8125H7.02658C6.73544 2.8125 6.49923 3.04843 6.49923 3.33984C6.49923 3.63126 6.73544 3.86719 7.02658 3.86719H8.88134V10.4225H8.29577C8.00436 10.4225 7.76843 10.6587 7.76843 10.9498C7.76843 11.2412 8.00436 11.4771 8.29577 11.4771H10.3727V12.7961H4.3613V11.4771H6.1864C6.47754 11.4771 6.71374 11.2412 6.71374 10.9498C6.71374 10.6587 6.47754 10.4225 6.1864 10.4225H0.892639C0.400451 10.4225 0 10.8229 0 11.3151V32.3122C0 32.8044 0.400451 33.2045 0.892364 33.2045H14.823C15.1142 33.2045 15.3504 32.9686 15.3504 32.6772C15.3504 32.3861 15.1142 32.1499 14.823 32.1499H1.05469V11.4771H3.30661V13.3234C3.30661 13.6148 3.54254 13.8507 3.83395 13.8507H9.18072V18.1621C9.18072 18.4532 9.41693 18.6894 9.70807 18.6894H15.0551V23.0004C15.0551 23.2916 15.2913 23.5278 15.5825 23.5278H20.9295V27.8388C20.9295 28.13 21.1657 28.3662 21.4568 28.3662H26.8039V32.1499H16.9324C16.6413 32.1499 16.4051 32.3858 16.4051 32.6772C16.4051 32.9686 16.6413 33.2045 16.9324 33.2045H27.3257H27.3312H34.215C34.6064 33.2045 34.925 32.8862 34.925 32.4946V30.4862C34.925 30.0949 34.6064 29.7763 34.215 29.7763H33.9466V22.7123L35.1373 23.6931C35.2356 23.7739 35.3543 23.8134 35.4724 23.8134C35.6245 23.8134 35.7756 23.7478 35.8797 23.6212C36.0648 23.3965 36.0327 23.0642 35.808 22.879ZM10.2354 17.6347V16.3158H16.2471V17.6347H10.2354ZM16.5921 18.6894C16.9835 18.6894 17.3018 18.3708 17.3018 17.9794V15.9711C17.3018 15.5794 16.9835 15.2611 16.5921 15.2611H10.2354V13.8507H10.7177C11.1091 13.8507 11.4274 13.5324 11.4274 13.141V11.1325C11.4274 10.7411 11.1091 10.4225 10.7177 10.4225H9.93603V3.86719H11.0671L21.1426 12.1663V20.0995H16.1098V18.6894H16.5921ZM16.1098 22.4731V21.1542H22.1215V22.4731H16.1098ZM21.9842 27.3115V25.9926H27.9959V27.3115H21.9842ZM33.8703 32.1499H27.8586V30.8309H33.8703V32.1499ZM32.892 29.7763H27.8586V28.3662H28.3406C28.732 28.3662 29.0506 28.0478 29.0506 27.6562V25.6479C29.0506 25.2565 28.732 24.9379 28.3406 24.9379H21.9842V23.5278H22.4662C22.8576 23.5278 23.1762 23.2092 23.1762 22.8178V20.8092C23.1762 20.4178 22.8579 20.0995 22.4662 20.0995H22.1973V13.0347L32.892 21.8436V29.7763Z" fill="#C7954B"/>
</g>
<defs>
<clipPath id="clip0_83_186">
<rect width="36" height="36" fill="white"/>
</clipPath>
</defs>
</svg>
