<svg width="36" height="36" viewBox="0 0 36 36" fill="none" xmlns="http://www.w3.org/2000/svg">
<path d="M32.6669 17.4018H32.2308C31.9312 16.5838 31.1509 16.0158 30.2383 16.0158H16.8244C16.4753 16.0158 16.1454 16.0996 15.8541 16.2485V2.52682C15.8541 2.20163 15.5904 1.93795 15.2653 1.93795C14.9843 1.93795 14.7498 2.13483 14.6909 2.39808V2.32137C14.6908 1.04133 13.6495 0 12.3695 0H3.75671C2.47674 0 1.43549 1.04133 1.43549 2.3213V3.27417C1.43549 3.69239 1.69107 4.0519 2.05417 4.2049V16.2087C2.05417 16.988 2.37563 17.7175 2.92449 18.2418C2.7208 18.5441 2.60176 18.908 2.60176 19.2993C2.60176 20.3456 3.45296 21.1968 4.49928 21.1968H7.91978V26.7571C7.91978 28.1093 9.00849 29.212 10.3554 29.2348L9.4746 35.3268C9.45013 35.4959 9.50033 35.6674 9.61227 35.7965C9.72406 35.9258 9.88663 35.9999 10.0575 35.9999H22.6016C22.7818 35.9999 22.9521 35.9174 23.0638 35.776C23.1754 35.6346 23.2161 35.4498 23.1744 35.2745L21.7348 29.2351H24.4338C26.754 29.2351 28.9449 28.3417 30.603 26.7194C32.1408 25.2148 33.0618 23.2391 33.2281 21.112C34.0014 20.8722 34.5645 20.1502 34.5645 19.2992C34.5644 18.2531 33.7133 17.4018 32.6669 17.4018ZM16.8244 17.1936H30.2384C30.463 17.1936 30.6691 17.2714 30.8317 17.4018H16.2317C16.3942 17.2714 16.6002 17.1936 16.8244 17.1936ZM13.9977 16.2088V6.55404C14.2967 6.42122 14.5055 6.12211 14.5055 5.77378C14.5055 5.42545 14.2968 5.12648 13.9977 4.99359V4.23211C14.3493 4.11567 14.6148 3.81115 14.6762 3.43821V17.1944C14.6762 17.2675 14.6902 17.3372 14.7145 17.4018H13.7281C13.9025 17.0318 13.9978 16.625 13.9977 16.2088ZM2.61329 3.10605V2.32137C2.61329 1.6908 3.12615 1.1778 3.75678 1.1778H12.3696C13.0001 1.1778 13.5131 1.69073 13.5131 2.32137V3.10605H2.61329ZM3.2319 16.2088V4.28379H12.8201V16.2088C12.8201 16.6596 12.6288 17.0929 12.3006 17.4018H4.49921C4.28103 17.4018 4.0715 17.4393 3.87624 17.5074C3.4737 17.199 3.2319 16.7226 3.2319 16.2088ZM29.7792 25.8775C28.3425 27.2831 26.4441 28.0574 24.4337 28.0574H20.989C20.8088 28.0574 20.6385 28.1399 20.5268 28.2813C20.4151 28.4227 20.3744 28.6075 20.4162 28.7828L21.8558 34.8222H10.7375L11.6182 28.7305C11.6427 28.5614 11.5925 28.3899 11.4805 28.2608C11.3687 28.1315 11.2062 28.0574 11.0353 28.0574H10.3977C9.68061 28.0574 9.0973 27.474 9.0973 26.7571V21.1968H32.0379C31.8579 22.9718 31.0689 24.6158 29.7792 25.8775ZM32.6669 20.0191H4.49921C4.10237 20.0191 3.77942 19.6962 3.77942 19.2994C3.77942 18.9025 4.1023 18.5796 4.49921 18.5796H31.7644C31.7646 18.5796 31.7649 18.5797 31.7651 18.5797C31.7653 18.5797 31.7657 18.5796 31.7659 18.5796H32.6669C33.0637 18.5796 33.3867 18.9025 33.3867 19.2994C33.3867 19.6963 33.0637 20.0191 32.6669 20.0191Z" fill="#C7954B"/>
</svg>
