<svg width="60" height="60" viewBox="0 0 60 60" fill="none" xmlns="http://www.w3.org/2000/svg">
<g clip-path="url(#clip0_62_188)">
<path d="M33.6091 30.3534C34.1016 30.3534 34.5009 29.9541 34.5009 29.4615V25.987C34.5009 25.4945 34.1016 25.0952 33.6091 25.0952C33.1166 25.0952 32.7173 25.4945 32.7173 25.987V29.4615C32.7173 29.9541 33.1166 30.3534 33.6091 30.3534Z" fill="#C7954B"/>
<path d="M45.9253 30.3534C46.4178 30.3534 46.8171 29.9541 46.8171 29.4615V25.987C46.8171 25.4945 46.4178 25.0952 45.9253 25.0952C45.4327 25.0952 45.0334 25.4945 45.0334 25.987V29.4615C45.0334 29.9541 45.4327 30.3534 45.9253 30.3534Z" fill="#C7954B"/>
<path d="M54.5717 33.946C57.5735 33.8947 60.0001 31.4384 60.0001 28.4247C60.0001 25.864 58.2478 23.7053 55.8792 23.083C56.7497 22.1465 57.2619 20.8987 57.2619 19.5783V19.2038C57.2619 17.8204 56.7002 16.5049 55.7308 15.5466C58.4891 10.7173 57.8105 4.44416 53.6929 0.326575C53.3447 -0.02171 52.78 -0.02171 52.4318 0.326575L46.9022 5.85609C46.0634 4.79696 44.7794 4.15699 43.3784 4.15699C42.2641 4.15699 41.2047 4.56925 40.3896 5.29353C38.5345 3.437 36.0298 2.39 33.3735 2.39C32.3194 2.39 31.2924 2.55196 30.3084 2.87206C29.6657 1.20852 28.0504 0.0250213 26.163 0.0250213H8.94958C8.45706 0.0250213 8.05776 0.424318 8.05776 0.91684C8.05776 1.40936 8.45706 1.80866 8.94958 1.80866H26.1627C27.6291 1.80866 28.8221 3.00167 28.8221 4.46818V31.7101C28.8221 31.977 28.6307 32.0841 28.5484 32.1176C28.4663 32.1513 28.2545 32.2088 28.0677 32.0184L22.4478 26.2884C22.28 26.1174 22.0506 26.0209 21.8111 26.0209H4.44316C2.97665 26.0208 1.78364 24.8278 1.78364 23.3614V4.46806C1.78364 3.00155 2.97665 1.80854 4.44316 1.80854H5.38207C5.87459 1.80854 6.27388 1.40924 6.27388 0.916721C6.27388 0.424199 5.87459 0.0249023 5.38207 0.0249023H4.44316C1.99315 0.0249023 0 2.01806 0 4.46806V23.3614C0 25.8113 1.99315 27.8045 4.44316 27.8045H19.2041C19.181 28.0098 19.1684 28.2167 19.1684 28.425C19.1684 31.4707 21.6461 33.9484 24.6917 33.9484C24.7817 33.9484 24.8716 33.9457 24.9613 33.9415C25.5209 37.1712 27.1145 40.0509 29.3883 42.2254C26.4232 45.0567 24.7405 48.9616 24.7405 53.0915V53.9973L19.6009 48.9031C19.5105 48.8136 19.4055 48.7478 19.2938 48.7048V47.4832C19.2938 46.1156 18.1813 45.0031 16.8137 45.0031C15.4462 45.0031 14.3337 46.1157 14.3337 47.4832V48.6446H10.5158C8.78501 48.6446 7.37688 50.0527 7.37688 51.7835C7.37688 53.2553 8.42162 54.5464 9.86102 54.8534L13.2002 55.5658L17.2827 59.6755C17.4502 59.844 17.6779 59.9388 17.9154 59.9388L53.9031 59.975C54.3956 59.975 54.7949 59.5757 54.7949 59.0831V53.0913C54.7949 52.5988 54.3956 52.1995 53.9031 52.1995C53.4105 52.1995 53.0112 52.5988 53.0112 53.0913V58.1913H45.3921L47.4895 56.0941C47.7575 55.8262 47.8268 55.4181 47.6623 55.0766L46.7672 53.2175H48.8345C49.2547 53.2175 49.6178 52.9242 49.7064 52.5136L51.0706 46.187C51.8049 47.3866 52.3461 48.6981 52.667 50.0776C52.7628 50.4893 53.1294 50.7675 53.5348 50.7675C53.6017 50.7675 53.6696 50.7599 53.7377 50.744C54.2173 50.6324 54.5158 50.1531 54.4041 49.6733C53.77 46.9477 52.383 44.4548 50.3932 42.4639C50.3141 42.3848 50.2334 42.3061 50.1514 42.2279C52.4338 40.041 54.0139 37.1514 54.5717 33.946ZM58.2164 28.4247C58.2164 30.387 56.6971 32 54.7731 32.1519C54.7865 31.8922 54.7943 31.6311 54.7943 31.3685V28.3066C55.1552 28.3286 55.5666 28.4631 55.765 28.9195C55.9111 29.2554 56.239 29.4559 56.5834 29.4559C56.7021 29.4559 56.8227 29.4321 56.9384 29.3817C57.3902 29.1853 57.5972 28.6599 57.4008 28.2083C56.8519 26.9459 55.7423 26.5577 54.7944 26.5243V24.7001C56.7082 24.862 58.2164 26.4701 58.2164 28.4247ZM55.4782 19.2036V19.5782C55.4782 20.3242 55.2273 21.0344 54.7918 21.6085C54.78 20.2591 54.5908 18.9288 54.2265 17.6449C54.3937 17.456 54.5543 17.2634 54.7082 17.0672C55.1989 17.6626 55.4782 18.4162 55.4782 19.2036ZM39.701 7.19096C39.8786 7.40975 40.1475 7.53164 40.4306 7.5201C40.7122 7.50845 40.9716 7.36433 41.1304 7.13151C41.639 6.38583 42.4793 5.94051 43.3782 5.94051C44.4875 5.94051 45.4754 6.60569 45.8949 7.63509C46.0076 7.91167 46.2515 8.11358 46.5442 8.17267C46.837 8.23177 47.1401 8.14033 47.3513 7.92903L53.0364 2.24387C56.657 6.50783 56.4552 12.9284 52.4316 16.9522C48.9726 20.4112 43.5945 21.1297 39.353 18.6997C39.0395 18.5201 38.6487 18.5474 38.3632 18.7688C36.9219 19.8864 35.1964 20.4772 33.3733 20.4772C32.4166 20.4772 31.4887 20.3128 30.6058 19.9927V4.65796C31.4887 4.33797 32.4166 4.17364 33.3733 4.17364C35.8389 4.17352 38.1453 5.27331 39.701 7.19096ZM24.6916 32.1647C22.6296 32.1647 20.9519 30.4872 20.9519 28.425C20.9519 28.2159 20.9691 28.0085 21.0033 27.8045H21.4365L24.7399 31.1727V31.3686C24.7399 31.6351 24.7471 31.8999 24.7609 32.1631C24.7379 32.1634 24.7148 32.1647 24.6916 32.1647ZM26.6379 33.1078L26.7941 33.2671C27.2221 33.7035 27.7942 33.9353 28.3789 33.9352C28.6622 33.9352 28.9487 33.8807 29.2229 33.7687C30.0628 33.4255 30.6057 32.6174 30.6057 31.71V21.8673C31.4988 22.1268 32.4246 22.2609 33.3732 22.2609C35.3984 22.2609 37.3245 21.663 38.9798 20.5263C43.4513 22.8203 48.8725 22.2224 52.7391 19.0716C52.9184 19.9452 53.0105 20.8385 53.0105 21.7419V31.3687C53.0105 37.7091 48.499 43.1779 42.2825 44.3722C41.4586 44.5312 40.6121 44.6117 39.7664 44.6117C33.0539 44.6115 27.4923 39.591 26.6379 33.1078ZM39.7668 50.7495L38.3588 48.951L39.7671 47.4179L41.1751 48.9507L39.7668 50.7495ZM36.2598 48.5992L34.7485 45.5324C35.8911 45.9384 37.0967 46.2098 38.3465 46.3275L36.2598 48.5992ZM37.1357 50.2822L38.6342 52.1963L38.2647 52.6682L37.1052 50.3153L37.1357 50.2822ZM39.7668 53.6432L40.3937 54.4441L39.7668 55.7162L39.1399 54.4441L39.7668 53.6432ZM41.2687 52.6682L40.8993 52.1963L42.398 50.2818L42.4283 50.3149L41.2687 52.6682ZM43.2742 48.5992L41.1879 46.3281C41.6694 46.2827 42.1479 46.2146 42.6198 46.1235C43.3639 45.9805 44.0862 45.783 44.7834 45.5367L43.2742 48.5992ZM32.1655 44.326L38.9668 58.1279C38.9777 58.1502 38.9913 58.1705 39.0039 58.1916H36.6638L33.7528 55.2805L34.9891 52.7128C35.1222 52.4365 35.1039 52.1111 34.9407 51.8514C34.7776 51.5917 34.4923 51.4341 34.1857 51.4341H31.4191L29.8772 44.2838C30.1546 43.9726 30.4473 43.6726 30.7557 43.3862C31.2066 43.7251 31.6775 44.0386 32.1655 44.326ZM26.5241 53.0915C26.5241 50.6211 27.2072 48.2417 28.4632 46.1873L29.8274 52.5138C29.916 52.9245 30.2791 53.2176 30.6992 53.2176H32.7666L31.8715 55.0767C31.707 55.4182 31.7763 55.8262 32.0443 56.0942L34.1417 58.1914H28.9723L26.5242 55.765V53.0915H26.5241ZM16.1172 47.4833C16.1172 47.0992 16.4296 46.7869 16.8136 46.7869C17.1977 46.7869 17.5101 47.0994 17.5101 47.4833V48.6447H16.1171V47.4833H16.1172ZM9.1604 51.7838C9.1604 51.0364 9.76838 50.4285 10.5157 50.4285H15.2252H16.7863L13.3638 53.7772L10.2328 53.1093C9.61154 52.9767 9.1604 52.4192 9.1604 51.7838ZM14.9117 54.7582L18.969 50.7883L26.4019 58.1555H18.2863L14.9117 54.7582ZM49.1317 43.7253C49.3127 43.9064 49.4866 44.0933 49.6562 44.2836L48.1143 51.434H45.3478C45.041 51.434 44.7559 51.5915 44.5927 51.8513C44.4294 52.111 44.4113 52.4364 44.5443 52.7127L45.7806 55.2804L42.8696 58.1914H40.5296C40.5422 58.1704 40.5557 58.1501 40.5667 58.1278L47.3629 44.337C47.8556 44.0479 48.3297 43.7321 48.7832 43.3912C48.9025 43.5018 49.0193 43.6129 49.1317 43.7253Z" fill="#C7954B"/>
<path d="M39.7674 38.3163C41.6049 38.3163 43.0998 36.8213 43.0998 34.9838C43.0998 33.3249 41.9786 32.4839 39.7674 32.4839C37.5561 32.4839 36.4351 33.325 36.4351 34.9838C36.4351 36.8213 37.9299 38.3163 39.7674 38.3163ZM39.7674 34.2675C41.3162 34.2675 41.3162 34.6317 41.3162 34.9838C41.3162 35.8378 40.6214 36.5326 39.7674 36.5326C38.9134 36.5326 38.2187 35.8378 38.2187 34.9838C38.2187 34.6317 38.2187 34.2675 39.7674 34.2675Z" fill="#C7954B"/>
<path d="M24.7552 6.03125H5.85031C5.35779 6.03125 4.9585 6.43055 4.9585 6.92307C4.9585 7.41559 5.35779 7.81489 5.85031 7.81489H24.7552C25.2477 7.81489 25.647 7.41559 25.647 6.92307C25.647 6.43055 25.2477 6.03125 24.7552 6.03125Z" fill="#C7954B"/>
<path d="M24.7552 10.4897H5.85031C5.35779 10.4897 4.9585 10.889 4.9585 11.3816C4.9585 11.8741 5.35779 12.2734 5.85031 12.2734H24.7552C25.2477 12.2734 25.647 11.8741 25.647 11.3816C25.647 10.889 25.2477 10.4897 24.7552 10.4897Z" fill="#C7954B"/>
<path d="M24.7554 14.9482H22.0212C21.5287 14.9482 21.1294 15.3475 21.1294 15.8401C21.1294 16.3326 21.5287 16.7319 22.0212 16.7319H24.7554C25.2479 16.7319 25.6472 16.3326 25.6472 15.8401C25.6472 15.3475 25.2479 14.9482 24.7554 14.9482Z" fill="#C7954B"/>
<path d="M5.85032 16.7319H18.4536C18.9461 16.7319 19.3454 16.3326 19.3454 15.8401C19.3454 15.3475 18.9461 14.9482 18.4536 14.9482H5.85032C5.35779 14.9482 4.9585 15.3475 4.9585 15.8401C4.9585 16.3326 5.35779 16.7319 5.85032 16.7319Z" fill="#C7954B"/>
<path d="M5.85031 21.1899H24.7552C25.2477 21.1899 25.647 20.7906 25.647 20.2981C25.647 19.8055 25.2477 19.4062 24.7552 19.4062H5.85031C5.35779 19.4062 4.9585 19.8055 4.9585 20.2981C4.9585 20.7906 5.35779 21.1899 5.85031 21.1899Z" fill="#C7954B"/>
</g>
<defs>
<clipPath id="clip0_62_188">
<rect width="60" height="60" fill="white"/>
</clipPath>
</defs>
</svg>
