<svg width="20" height="20" viewBox="0 0 20 20" fill="none" xmlns="http://www.w3.org/2000/svg">
<g id="clock-icon" clip-path="url(#clip0_62_318)">
<path id="Vector" d="M17.0711 2.92892C15.1823 1.04016 12.6711 0 10 0C7.32889 0 4.81771 1.04016 2.92892 2.92892C1.04023 4.81771 0 7.32889 0 10C0 12.6711 1.04023 15.1823 2.92892 17.0711C4.81771 18.9598 7.32889 20 10 20C12.6711 20 15.1823 18.9598 17.0711 17.0711C18.9598 15.1823 20 12.6711 20 10C20 7.32889 18.9598 4.81771 17.0711 2.92892ZM16.6282 16.6282C14.8577 18.3987 12.5038 19.3737 10 19.3737C7.49621 19.3737 5.14226 18.3987 3.37176 16.6282C1.60134 14.8577 0.626307 12.5038 0.626307 10C0.626307 7.49621 1.60134 5.14226 3.37176 3.37183C5.14226 1.60134 7.49621 0.626307 10 0.626307C12.5038 0.626307 14.8577 1.60134 16.6282 3.37183C18.3987 5.14226 19.3737 7.49621 19.3737 10C19.3737 12.5038 18.3987 14.8577 16.6282 16.6282ZM10.3131 3.98748H9.68683V2.31732H10.3131V3.98748ZM9.68683 16.0125H10.3131V17.6826H9.68683V16.0125ZM3.98748 10.3131H2.31732V9.68683H3.98745V10.3131H3.98748ZM17.6827 9.68683V10.3131H16.0126V9.68683H17.6827ZM6.38843 4.37118L5.88739 3.50337L6.42977 3.1902L6.93082 4.05801L6.38843 4.37118ZM13.611 15.6293L14.1121 16.4972L13.5697 16.8103L13.0686 15.9425L13.611 15.6293ZM4.05755 13.0692L4.37072 13.6116L3.50291 14.1127L3.18974 13.5703L4.05755 13.0692ZM15.9422 6.93049L15.6291 6.3881L16.4969 5.88706L16.81 6.42944L15.9422 6.93049ZM13.6112 4.37088L13.0688 4.05771L13.5698 3.1899L14.1122 3.50307L13.6112 4.37088ZM6.3886 15.6294L6.93098 15.9426L6.42993 16.8104L5.88755 16.4972L6.3886 15.6294ZM15.9426 13.0694L16.8104 13.5705L16.4973 14.1129L15.6294 13.6118L15.9426 13.0694ZM3.5033 5.88765L4.37111 6.38869L4.05794 6.93108L3.19013 6.43003L3.5033 5.88765ZM10.9812 10C10.9812 9.56846 10.701 9.20137 10.3131 9.07033V4.65552H9.68683V9.07029C9.29892 9.20131 9.01879 9.5684 9.01879 9.99997C9.01879 10.541 9.45895 10.9812 10 10.9812C10.2484 10.9812 10.4753 10.8882 10.6484 10.7355L14.4754 12.9434L14.7883 12.4009L10.962 10.1934C10.9745 10.1309 10.9812 10.0662 10.9812 10ZM10 10.3549C9.80431 10.3549 9.6451 10.1957 9.6451 10C9.6451 9.80431 9.80431 9.6451 10 9.6451C10.1957 9.6451 10.3549 9.80431 10.3549 10C10.3549 10.1957 10.1957 10.3549 10 10.3549ZM10 1.67013C5.4069 1.67013 1.67013 5.4069 1.67013 10C1.67013 14.5931 5.40686 18.3299 10 18.3299C14.5931 18.3299 18.3299 14.5931 18.3299 10C18.3299 5.4069 14.5931 1.67013 10 1.67013ZM10 17.7036C5.75225 17.7036 2.29644 14.2477 2.29644 10C2.29644 5.75229 5.75225 2.29644 10 2.29644C14.2477 2.29644 17.7036 5.75229 17.7036 10C17.7036 14.2477 14.2477 17.7036 10 17.7036Z" fill="#C7954B"/>
</g>
<defs>
<clipPath id="clip0_62_318">
<rect width="20" height="20" fill="white"/>
</clipPath>
</defs>
</svg>
