<svg width="20" height="20" viewBox="0 0 20 20" fill="none" xmlns="http://www.w3.org/2000/svg">
<g clip-path="url(#clip0_62_311)">
<path d="M20.0295 16.5042C19.9659 16.0236 19.6885 15.6093 19.2684 15.3674L14.3343 12.5265C13.73 12.1786 12.9634 12.2799 12.4701 12.7731L11.4982 13.745C11.2396 14.0036 10.8305 14.0265 10.5467 13.7981C9.78057 13.1817 9.0262 12.5032 8.30462 11.7816C7.58303 11.06 6.90456 10.3056 6.28803 9.53943C6.05965 9.25564 6.0825 8.84653 6.3412 8.58788L7.31302 7.61602C7.80623 7.12285 7.90765 6.3563 7.55962 5.75186L4.71877 0.81779C4.47687 0.397669 4.06254 0.120266 3.58194 0.0566816C3.10131 -0.00703205 2.62905 0.153267 2.28625 0.496068L0.821868 1.96049C-0.200185 2.98259 -0.2166 4.85218 0.775649 7.22497C1.72976 9.50648 3.51028 12.018 5.78916 14.297C8.06812 16.5759 10.5797 18.3565 12.8612 19.3106C14.0292 19.799 15.0752 20.043 15.9582 20.043C16.8692 20.043 17.6067 19.7833 18.1257 19.2643L19.5901 17.7999C19.9329 17.4571 20.093 16.9848 20.0295 16.5042ZM14.011 13.088L18.9451 15.9289C19.1891 16.0694 19.3502 16.3101 19.3871 16.5892C19.4181 16.8234 19.3573 17.0541 19.2193 17.24L12.662 13.4976L12.9283 13.2313C13.2147 12.9449 13.6601 12.886 14.011 13.088ZM3.49694 0.699045C3.77611 0.735977 4.01675 0.897097 4.15722 1.14111L6.99808 6.07518C7.20023 6.42623 7.14131 6.8715 6.85488 7.15788L6.61027 7.4025L2.84732 0.86686C3.00114 0.752953 3.18511 0.691097 3.37689 0.691097C3.41668 0.691097 3.45681 0.693732 3.49694 0.699045ZM17.6675 18.8061C16.8555 19.6181 15.1948 19.5841 13.1112 18.7127C10.9056 17.7904 8.46807 16.0595 6.24738 13.8388C4.02669 11.6181 2.29575 9.18052 1.37343 6.97499C0.502047 4.89136 0.468052 3.23066 1.28005 2.41862L2.36715 1.33147L6.13576 7.877L5.88302 8.12974C5.38994 8.62287 5.34701 9.4035 5.7832 9.94569C6.41424 10.73 7.10844 11.5018 7.8464 12.2397C8.58444 12.9777 9.35626 13.6719 10.1405 14.303C10.6826 14.7392 11.4632 14.6963 11.9564 14.2031L12.187 13.9725L18.7534 17.7201L17.6675 18.8061Z" fill="#C7954B"/>
</g>
<defs>
<clipPath id="clip0_62_311">
<rect width="20" height="20" fill="white"/>
</clipPath>
</defs>
</svg>
