<svg width="20" height="20" viewBox="0 0 20 20" fill="none" xmlns="http://www.w3.org/2000/svg">
<g clip-path="url(#clip0_62_300)">
<path d="M3.98571 12.0695C3.24442 10.5529 2.8686 9.08855 2.8686 7.7175C2.86856 3.78523 6.06767 0.586094 9.99997 0.586094C12.3356 0.586094 14.5267 1.73293 15.8611 3.65383C15.9535 3.78676 16.1361 3.81969 16.269 3.72734C16.4019 3.635 16.4348 3.45242 16.3425 3.31949C14.8986 1.2409 12.5275 0 9.99997 0C5.74454 0 2.28247 3.46207 2.28247 7.7175C2.28247 9.17855 2.67837 10.7294 3.45915 12.3269C3.50997 12.4309 3.61423 12.4913 3.72267 12.4913C3.76583 12.4913 3.80974 12.4818 3.8511 12.4615C3.99649 12.3905 4.05677 12.215 3.98571 12.0695Z" fill="#C7954B"/>
<path d="M16.9539 4.36688C16.8835 4.22114 16.7083 4.16001 16.5626 4.2304C16.4168 4.30079 16.3557 4.47598 16.426 4.62172C16.8941 5.59126 17.1314 6.63305 17.1314 7.71809C17.1314 9.0954 16.7522 10.5666 16.0042 12.0907C15.4 13.3219 14.5558 14.5891 13.4951 15.8572C12.0101 17.6325 10.5073 18.9158 10.0002 19.3314C9.25903 18.7233 6.38982 16.2576 4.53251 13.087C4.45068 12.9473 4.27114 12.9005 4.13153 12.9823C3.99189 13.0641 3.94501 13.2436 4.02681 13.3833C6.22224 17.131 9.67482 19.8263 9.82071 19.9392C9.87349 19.9801 9.93677 20.0005 10.0001 20.0005C10.0633 20.0005 10.1266 19.9801 10.1793 19.9393C10.2562 19.8798 12.0818 18.4581 13.9369 16.2425C15.0297 14.9373 15.9013 13.6294 16.5274 12.3549C17.3171 10.7476 17.7176 9.18754 17.7176 7.71809C17.7176 6.54403 17.4606 5.41657 16.9539 4.36688Z" fill="#C7954B"/>
<path d="M7.62834 5.91953C7.49041 5.83477 7.30994 5.87793 7.22525 6.01582C6.9115 6.52656 6.74561 7.11488 6.74561 7.71715C6.74561 9.5116 8.20549 10.9714 9.9999 10.9714C11.7944 10.9714 13.2542 9.5116 13.2542 7.71719C13.2542 5.92273 11.7943 4.46289 9.99986 4.46289C9.31607 4.46289 8.66166 4.67266 8.10736 5.06949C7.97576 5.16371 7.94549 5.34676 8.03967 5.47836C8.13389 5.60996 8.31689 5.64023 8.44854 5.54602C8.90271 5.22086 9.43916 5.04895 9.99986 5.04895C11.4711 5.04895 12.668 6.24586 12.668 7.71711C12.668 9.18836 11.4711 10.3853 9.99986 10.3853C8.52861 10.3853 7.3317 9.18832 7.3317 7.71711C7.3317 7.2232 7.46756 6.74098 7.72463 6.32258C7.80932 6.18473 7.76623 6.00422 7.62834 5.91953Z" fill="#C7954B"/>
</g>
<defs>
<clipPath id="clip0_62_300">
<rect width="20" height="20" fill="white"/>
</clipPath>
</defs>
</svg>
