<svg width="60" height="60" viewBox="0 0 60 60" fill="none" xmlns="http://www.w3.org/2000/svg">
<g clip-path="url(#clip0_62_211)">
<path d="M58.6028 9.37273H54.5233C53.8705 7.12921 51.7974 5.48438 49.346 5.48438H46.9272C46.1578 5.48438 45.5319 6.11027 45.5319 6.87957V9.37273H42.0544C41.7776 8.50811 40.9668 7.8801 40.0116 7.8801H31.7991C31.3135 7.8801 30.9197 8.27372 30.9197 8.7595C30.9197 9.24528 31.3135 9.6389 31.7991 9.6389H36.6313V37.163H20.8422V9.63878H28.0514C28.537 9.63878 28.9308 9.24516 28.9308 8.75938C28.9308 8.2736 28.537 7.87998 28.0514 7.87998H17.462C16.5067 7.87998 15.6959 8.50799 15.4192 9.37262H0.879401C0.393737 9.37262 0 9.76624 0 10.252V51.3488C0 52.1191 0.626837 52.746 1.39719 52.746H15.3521C15.5302 53.7502 16.4075 54.516 17.4621 54.516H40.0115C41.066 54.516 41.9433 53.7502 42.1214 52.746H50.3675C50.8532 52.746 51.2469 52.3523 51.2469 51.8666C51.2469 51.3808 50.8532 50.9872 50.3675 50.9872H42.1564V48.1379H58.2412V50.9872H54.1153C53.6296 50.9872 53.2359 51.3808 53.2359 51.8666C53.2359 52.3523 53.6296 52.746 54.1153 52.746H58.6028C59.3732 52.746 60 52.1191 60 51.3488V10.7699C60 9.99945 59.3732 9.37273 58.6028 9.37273ZM46.9271 29.8958H49.2568C50.2564 29.8958 51.2344 30.3083 51.9399 31.0275C51.9966 31.0853 52.0503 31.1449 52.1026 31.2056C51.6013 32.641 50.2195 33.6453 48.6706 33.6453H42.1564V14.649H45.5317V28.5005C45.5317 29.2699 46.1578 29.8958 46.9271 29.8958ZM52.9789 33.6006C52.9413 35.5649 51.3116 37.163 49.346 37.163H42.1565V35.4042H48.6707C50.3892 35.4042 51.9694 34.5706 52.9687 33.2594C52.9773 33.3723 52.981 33.486 52.9789 33.6006ZM42.1564 38.9217H58.2412V41.771H42.1564V38.9217ZM58.2412 36.3542V37.1629H53.3153C54.1747 36.2262 54.7114 34.9891 54.7373 33.6341C54.7379 33.602 54.7383 33.5699 54.7383 33.5378C54.7383 33.535 54.7383 33.5322 54.7383 33.5294V11.1315H58.2412V36.3542ZM47.2905 7.24306H49.3459C51.3494 7.24306 52.9795 8.873 52.9795 10.8765V29.5873C51.9663 28.6622 50.6259 28.1369 49.2568 28.1369H47.2905V7.24306ZM45.5317 12.8903H42.1564V11.1315H45.5317V12.8903ZM38.3901 9.63878H40.0115C40.2244 9.63878 40.3976 9.81208 40.3976 10.0249V37.1629H38.39V9.63878H38.3901ZM17.0759 10.0249C17.0759 9.81208 17.2492 9.63878 17.462 9.63878H19.0834V37.1629H17.0759V10.0249ZM1.7588 38.9217H15.3171V41.771H1.7588V38.9217ZM1.7588 45.1455V43.5298H15.3171V46.3792H1.7588V45.1455ZM1.7588 11.1315H15.3171V12.8903H9.9452C9.45954 12.8903 9.0658 13.284 9.0658 13.7697C9.0658 16.3442 6.97142 18.4385 4.397 18.4385C3.91134 18.4385 3.5176 18.8322 3.5176 19.3179V22.5648C3.5176 23.0506 3.91134 23.4442 4.397 23.4442C4.88267 23.4442 5.27641 23.0506 5.27641 22.5648V20.1374C8.11839 19.7469 10.3741 17.4911 10.7647 14.649H15.3171V33.6453H10.7647C10.3741 30.8033 8.11839 28.5475 5.27641 28.157V26.3126C5.27641 25.8268 4.88267 25.4332 4.397 25.4332C3.91134 25.4332 3.5176 25.8268 3.5176 26.3126V28.9766C3.5176 29.4624 3.91134 29.856 4.397 29.856C6.97142 29.856 9.0658 31.9504 9.0658 34.5248C9.0658 35.0106 9.45954 35.4042 9.9452 35.4042H15.3171V37.163H1.7588V11.1315ZM1.7588 48.138H15.3171V50.9873H1.7588V48.138ZM17.0759 52.371V38.9217H19.0834V52.7572H17.462C17.2492 52.7572 17.0759 52.584 17.0759 52.371ZM20.8422 52.7572V38.9217H36.6312V52.7572H20.8422ZM40.3976 52.371C40.3976 52.5839 40.2243 52.7572 40.0115 52.7572H38.3901V38.9217H40.3977V52.371H40.3976ZM42.1564 46.3792V43.5298H58.2412V45.1455V46.3791H42.1564V46.3792Z" fill="#C7954B"/>
<path d="M27.8991 18.8335V19.779H27.0257C26.156 19.779 25.4485 20.4865 25.4485 21.3562V23.3566C25.4485 24.2262 26.156 24.9337 27.0257 24.9337H30.2662V26.7017H26.328C25.8423 26.7017 25.4486 27.0953 25.4486 27.5811C25.4486 28.0668 25.8423 28.4605 26.328 28.4605H27.8573V29.4604C27.8573 29.9462 28.2511 30.3398 28.7367 30.3398C29.2224 30.3398 29.6161 29.9462 29.6161 29.4604V28.4605H30.4478C31.3175 28.4605 32.025 27.753 32.025 26.8834V24.752C32.025 23.8824 31.3175 23.1749 30.4478 23.1749H27.2074V21.5378H31.1456C31.6313 21.5378 32.025 21.1442 32.025 20.6584C32.025 20.1727 31.6313 19.779 31.1456 19.779H29.6579V18.8335C29.6579 18.3477 29.2642 17.9541 28.7785 17.9541C28.2928 17.9541 27.8991 18.3477 27.8991 18.8335Z" fill="#C7954B"/>
</g>
<defs>
<clipPath id="clip0_62_211">
<rect width="60" height="60" fill="white"/>
</clipPath>
</defs>
</svg>
