<svg width="60" height="60" viewBox="0 0 60 60" fill="none" xmlns="http://www.w3.org/2000/svg">
<path d="M58.0214 34.9367L32.1928 1.08502C31.6744 0.405651 30.8546 0 30 0C29.1454 0 28.3255 0.405651 27.807 1.08514L24.87 4.93448C24.575 5.321 24.6493 5.87349 25.0358 6.16834C25.4226 6.46342 25.9747 6.38889 26.2698 6.00249L29.2067 2.15326C29.3944 1.90748 29.6908 1.76064 30 1.76064C30.3092 1.76064 30.6057 1.90736 30.7932 2.15314L55.5425 34.5905H53.0326L30.6999 5.32042C30.5334 5.10221 30.2746 4.97404 30 4.97404C29.7255 4.97404 29.4667 5.1021 29.3001 5.32042L28.0174 7.00147C27.7224 7.38799 27.7967 7.94048 28.1834 8.23533C28.5701 8.53018 29.1222 8.45588 29.4172 8.06936L30 7.30548L51.7168 35.7681V43.5276C51.7168 44.0137 52.1108 44.4079 52.5971 44.4079C53.0834 44.4079 53.4774 44.0137 53.4774 43.5276V36.3509H57.3216C57.6564 36.3509 57.9621 36.1609 58.1106 35.8609C58.2591 35.561 58.2245 35.2028 58.0214 34.9367Z" fill="#C7954B"/>
<path d="M53.8103 54.4561H53.4773V47.2794C53.4773 46.7932 53.0833 46.3991 52.597 46.3991C52.1107 46.3991 51.7167 46.7932 51.7167 47.2794V50.2029H35.6006V48.4023C35.6006 45.2818 33.0619 42.7431 29.9413 42.7431C26.8208 42.7431 24.282 45.2818 24.282 48.4023V50.203H17.9149C17.4286 50.203 17.0345 50.5972 17.0345 51.0833C17.0345 51.5695 17.4286 51.9636 17.9149 51.9636H24.282V54.4562H8.28323V51.9635H14.1633C14.6496 51.9635 15.0436 51.5694 15.0436 51.0832C15.0436 50.597 14.6496 50.2029 14.1633 50.2029H8.28323V35.7682L9.62812 34.0055C9.92309 33.619 9.84879 33.0665 9.46227 32.7716C9.0754 32.4767 8.52326 32.5511 8.2283 32.9376L6.96733 34.5905H4.45748L6.80769 31.5102C7.10266 31.1237 7.02836 30.5712 6.64184 30.2763C6.25485 29.9811 5.70284 30.0557 5.40787 30.4422L1.9785 34.9367C1.77555 35.2028 1.74093 35.5611 1.88941 35.8611C2.03789 36.1611 2.34365 36.351 2.67841 36.351H6.52259V54.4561H6.18959C5.1203 54.4561 4.25031 55.3261 4.25031 56.3954V59.1196C4.25031 59.6058 4.64434 59.9999 5.13063 59.9999H54.8694C55.3557 59.9999 55.7497 59.6058 55.7497 59.1196V56.3954C55.7497 55.3261 54.8797 54.4561 53.8103 54.4561ZM51.7167 51.9635V54.4561H35.6006V51.9635H51.7167ZM26.0427 48.4023C26.0427 46.2526 27.7916 44.5037 29.9413 44.5037C32.0911 44.5037 33.84 46.2526 33.84 48.4023V54.4562H26.0427V48.4023ZM53.9891 58.2394H6.01095V56.3955C6.01095 56.297 6.09111 56.2169 6.18959 56.2169H53.8103C53.9089 56.2169 53.9889 56.297 53.9889 56.3955V58.2394H53.9891Z" fill="#C7954B"/>
<path d="M16.8028 33.6884V35.3953C16.3625 35.4438 16.0199 35.8167 16.0199 36.27C16.0199 36.7562 16.414 37.1503 16.9002 37.1503H22.4338C22.9201 37.1503 23.3141 36.7562 23.3141 36.27C23.3141 35.8535 23.0247 35.5055 22.6363 35.414V33.0485C24.1793 32.5266 25.5992 31.7361 26.8417 30.7338L42.5924 42.867C43.1594 43.3037 43.8399 43.5343 44.5438 43.5343C44.6829 43.5343 44.8229 43.5252 44.9631 43.5072C45.813 43.3969 46.5691 42.9622 47.092 42.2834C47.6151 41.6045 47.8424 40.7626 47.7321 39.9126C47.6217 39.0627 47.1872 38.3067 46.5083 37.7838L43.0799 35.1428V30.3169C43.0799 28.7086 41.7715 27.4001 40.1631 27.4001C38.5547 27.4001 37.2463 28.7085 37.2463 30.3169V30.6492L30.7621 25.6543C31.5265 23.9487 31.9523 22.0596 31.9523 20.0728C31.9523 12.5223 25.8095 6.37939 18.259 6.37939C15.1335 6.37939 12.1902 7.40538 9.747 9.34642C9.36647 9.6489 9.30297 10.2026 9.60544 10.5833C9.9078 10.964 10.4616 11.0275 10.8424 10.725C12.9707 9.03397 15.5353 8.14015 18.259 8.14015C24.8387 8.14015 30.1917 13.4931 30.1917 20.0729C30.1917 26.6528 24.8387 32.0053 18.2591 32.0053C11.6792 32.0053 6.32631 26.6523 6.32631 20.0725C6.32631 17.6271 7.06132 15.2764 8.45176 13.2744C8.729 12.8751 8.63029 12.3266 8.23085 12.0492C7.83154 11.7719 7.28293 11.8707 7.00568 12.2701C5.40937 14.5684 4.56567 17.2664 4.56567 20.0726C4.56556 27.1312 9.93433 32.9591 16.8028 33.6884ZM20.8756 35.3896H18.5636V33.762C19.3525 33.7448 20.1248 33.6599 20.8756 33.514V35.3896ZM39.0071 31.8515V30.3167C39.0071 29.6792 39.5257 29.1605 40.1632 29.1605C40.8007 29.1605 41.3194 29.6791 41.3194 30.3167V33.7863L38.9944 31.9954C39.002 31.9485 39.0071 31.9007 39.0071 31.8515ZM45.4339 39.1785C45.7402 39.4145 45.9363 39.7556 45.9861 40.1391C46.0359 40.5226 45.9333 40.9025 45.6973 41.2088C45.4612 41.5152 45.1201 41.7113 44.7365 41.7611C44.3534 41.811 43.9731 41.7083 43.6669 41.4723L28.1575 29.5251C28.8243 28.8272 29.4178 28.0587 29.9265 27.2328L45.4339 39.1785Z" fill="#C7954B"/>
<path d="M18.2591 30.2442C23.868 30.2442 28.4311 25.6811 28.4311 20.0721C28.4311 14.463 23.868 9.8999 18.2591 9.8999C12.6501 9.8999 8.08691 14.463 8.08691 20.0721C8.08691 25.6811 12.65 30.2442 18.2591 30.2442ZM18.2591 11.6607C22.8972 11.6607 26.6705 15.4341 26.6705 20.0722C26.6705 24.7103 22.8972 28.4837 18.2591 28.4837C13.6208 28.4837 9.84755 24.7103 9.84755 20.0722C9.84755 15.4341 13.6208 11.6607 18.2591 11.6607Z" fill="#C7954B"/>
</svg>
