<svg width="60" height="60" viewBox="0 0 60 60" fill="none" xmlns="http://www.w3.org/2000/svg">
<g clip-path="url(#clip0_62_202)">
<path d="M19.8698 28.51H25.9313C26.4213 28.51 26.8184 28.113 26.8184 27.6229C26.8184 27.1329 26.4213 26.7358 25.9313 26.7358H19.8698C19.3798 26.7358 18.9827 27.1329 18.9827 27.6229C18.9827 28.113 19.3798 28.51 19.8698 28.51Z" fill="#C7954B"/>
<path d="M4.43543 19.7197C3.94552 19.7197 3.54834 20.1168 3.54834 20.6068V34.9567C3.54834 41.7076 7.2255 47.9178 13.145 51.1637L22.4741 56.2791C22.6069 56.352 22.7537 56.3884 22.9006 56.3884C23.0475 56.3884 23.1943 56.352 23.3271 56.2791L32.6565 51.1637C38.5758 47.9178 42.2531 41.7076 42.2531 34.9567V9.09805C42.2531 8.69011 41.9747 8.33468 41.5787 8.23687L23.1246 3.68066C22.9848 3.64636 22.8391 3.646 22.6995 3.68054L4.223 8.23746C3.82677 8.33516 3.54834 8.6907 3.54834 9.09876V16.8264C3.54834 17.3164 3.94552 17.7135 4.43543 17.7135C4.92534 17.7135 5.32252 17.3164 5.32252 16.8264V9.79365L22.9118 5.45555L40.4788 9.79282V34.9567C40.4788 41.0596 37.1546 46.6737 31.8033 49.6081L22.9005 54.4896L13.9979 49.6081C8.64662 46.6737 5.3224 41.0596 5.3224 34.9567V20.6068C5.32252 20.1168 4.92534 19.7197 4.43543 19.7197Z" fill="#C7954B"/>
<path d="M44.9144 28.5564C45.4044 28.5564 45.8015 28.1594 45.8015 27.6694V7.95645C45.8015 6.58347 44.8705 5.39466 43.5374 5.06549L23.1251 0.0258735C22.9853 -0.00854555 22.8396 -0.00866383 22.7 0.0257552L2.26468 5.06549C0.931207 5.39442 0 6.58336 0 7.95669V34.9565C0 43.0035 4.38317 50.4058 11.439 54.2748L20.9755 59.5042C21.5784 59.8347 22.2394 60 22.9006 59.9999C23.5618 59.9999 24.2231 59.8346 24.8256 59.5042L34.3624 54.2748C41.4182 50.4058 45.8014 43.0035 45.8014 34.9565V31.4498C45.8014 30.9597 45.4043 30.5627 44.9143 30.5627C44.4243 30.5627 44.0272 30.9597 44.0272 31.4498V34.9565C44.0272 42.3555 39.997 49.1618 33.5093 52.7192L23.9725 57.9486C23.3014 58.3169 22.4999 58.3168 21.8286 57.9486L12.2919 52.7192C5.80417 49.1618 1.77406 42.3555 1.77406 34.9565V7.95669C1.77406 7.40161 2.15054 6.92092 2.68942 6.7881L22.9122 1.80064L43.112 6.78774C43.6508 6.9208 44.0271 7.40137 44.0271 7.95633V27.6692C44.0273 28.1593 44.4244 28.5564 44.9144 28.5564Z" fill="#C7954B"/>
<path d="M11.6573 26.2559L22.3418 17.5895C22.6655 17.3268 23.1354 17.3267 23.4593 17.5896L28.0077 21.2788C28.3882 21.5873 28.9467 21.5291 29.2555 21.1486C29.5641 20.7681 29.5058 20.2095 29.1253 19.9008L24.577 16.2116C23.6055 15.4234 22.1954 15.4238 21.2241 16.2115L10.5396 24.8779C10.1321 25.2085 9.87772 25.6778 9.82332 26.1997C9.76891 26.7215 9.92102 27.2332 10.2515 27.6408L11.1297 28.7235C11.6324 29.3433 12.4375 29.575 13.1629 29.382V36.5729H12.8964C12.4065 36.5729 12.0093 36.97 12.0093 37.46C12.0093 37.9501 12.4065 38.3471 12.8964 38.3471H32.9087C33.3987 38.3471 33.7958 37.9501 33.7958 37.46C33.7958 36.97 33.3987 36.5729 32.9087 36.5729H32.6379V29.3843C32.8012 29.428 32.9703 29.4507 33.142 29.4507C33.2108 29.4507 33.2801 29.4471 33.3494 29.4398C33.8713 29.3854 34.3408 29.1311 34.6713 28.7235L35.5494 27.6408C35.88 27.2334 36.0321 26.7216 35.9775 26.1997C35.9231 25.6778 35.6688 25.2084 35.2612 24.878L32.0622 22.2831C31.6815 21.9743 31.123 22.0326 30.8144 22.4132C30.5059 22.7937 30.564 23.3522 30.9445 23.6609L34.1436 26.256C34.1942 26.297 34.2093 26.348 34.2129 26.3837C34.2167 26.4194 34.2126 26.4725 34.1714 26.5232L33.2932 27.6059C33.2523 27.6565 33.2012 27.6715 33.1655 27.6752C33.1294 27.6793 33.0764 27.6748 33.0259 27.6337L32.3165 27.0583C32.3154 27.0573 32.3142 27.0564 32.313 27.0555L23.4592 19.874C23.1336 19.6101 22.6674 19.6101 22.3416 19.874L13.486 27.0568C13.4858 27.057 13.4856 27.0572 13.4853 27.0573L12.7747 27.6338C12.6932 27.6999 12.5734 27.6871 12.5074 27.606L11.6292 26.5233C11.5882 26.4727 11.584 26.4196 11.5878 26.3838C11.5918 26.348 11.6068 26.2968 11.6573 26.2559ZM25.0442 36.5729H20.7569V35.847C20.7569 34.665 21.7185 33.7033 22.9005 33.7033C24.0825 33.7033 25.0442 34.665 25.0442 35.847V36.5729ZM22.9007 21.7052L30.864 28.1644V36.5729H26.8185V35.847C26.8185 33.6866 25.061 31.9291 22.9007 31.9291C20.7403 31.9291 18.9828 33.6866 18.9828 35.847V36.5729H14.9373V28.1644L22.9007 21.7052Z" fill="#C7954B"/>
</g>
<defs>
<clipPath id="clip0_62_202">
<rect width="60" height="60" fill="white"/>
</clipPath>
</defs>
</svg>
