<svg width="60" height="60" viewBox="0 0 60 60" fill="none" xmlns="http://www.w3.org/2000/svg">
<g clip-path="url(#clip0_62_93)">
<path d="M59.4355 42.1623C58.5012 40.6131 56.5093 40.0486 54.9016 40.8771L53.2095 41.7488V35.201C53.2095 34.7147 52.8154 34.3205 52.329 34.3205C51.8427 34.3205 51.4485 34.7147 51.4485 35.201V42.656L45.8055 45.5631C45.374 44.0102 44.2176 42.7566 42.7246 42.1915V37.8864C42.7246 34.1907 39.7181 31.184 36.0222 31.184C32.3264 31.184 29.3197 34.1907 29.3197 37.8864V39.1232C27.9498 38.2197 26.3221 37.7151 24.6089 37.7151H22.1896C21.453 37.7151 20.7273 37.8116 20.0267 37.9945V23.5849L36.022 12.7971L51.4484 23.2012V31.4486C51.4484 31.9348 51.8425 32.3291 52.3289 32.3291C52.8153 32.3291 53.2094 31.9348 53.2094 31.4486V24.3888L54.4599 25.2322C54.7677 25.4398 55.1379 25.5149 55.5019 25.4441C55.8663 25.3733 56.1811 25.1648 56.3883 24.8572L58.1828 22.1965C58.6109 21.5615 58.4428 20.6965 57.8078 20.2682L37.696 6.70406C36.6789 6.01822 35.365 6.01822 34.3481 6.70406L28.1834 10.8617V6.17319C29.0012 5.82839 29.5767 5.01869 29.5767 4.07703V2.27378C29.5768 1.01996 28.5567 0 27.3029 0H18.5359C17.2822 0 16.2622 1.01996 16.2622 2.27378V4.07691C16.2622 5.01869 16.8378 5.82839 17.6555 6.17307V8.87148C17.6555 9.35775 18.0496 9.75198 18.536 9.75198C19.0224 9.75198 19.4165 9.35775 19.4165 8.87148V6.35081H26.4224V12.0496L19.4165 16.7747V12.6239C19.4165 12.1376 19.0224 11.7434 18.536 11.7434C18.0496 11.7434 17.6555 12.1376 17.6555 12.6239V17.9622L14.236 20.2683C13.6011 20.6966 13.4329 21.5617 13.8612 22.1967L15.6554 24.8571C15.8628 25.1649 16.1777 25.3734 16.5421 25.4442C16.6314 25.4616 16.721 25.4702 16.8101 25.4702C17.084 25.4702 17.3518 25.3889 17.5839 25.2323L18.2658 24.7725V38.6698C17.6246 39.0011 17.022 39.4129 16.4755 39.9034L15.4166 40.8539H13.8526C13.6631 39.1071 12.18 37.7428 10.3837 37.7428H0.951292C0.464909 37.7428 0.0708008 38.137 0.0708008 38.6233C0.0708008 39.1096 0.464909 39.5038 0.951292 39.5038H10.3837C11.337 39.5038 12.1126 40.2793 12.1126 41.2327V42.8039H0.951292C0.464909 42.8039 0.0708008 43.1981 0.0708008 43.6844C0.0708008 44.1706 0.464909 44.5649 0.951292 44.5649H12.1125V53.8549C12.1125 54.8081 11.337 55.5838 10.3836 55.5838H0.951292C0.464909 55.5838 0.0708008 55.978 0.0708008 56.4643C0.0708008 56.9506 0.464909 57.3448 0.951292 57.3448H10.3837C12.1247 57.3448 13.5718 56.0633 13.8318 54.394H20.3324L22.425 55.4341C22.5508 55.4967 22.6845 55.5263 22.8161 55.5263C23.1399 55.5263 23.4514 55.3471 23.6053 55.0375C23.8218 54.6021 23.6443 54.0736 23.2087 53.8571L20.9311 52.7249C20.8093 52.6643 20.6751 52.6329 20.5392 52.6329H13.8737V42.6149H15.754C15.9712 42.6149 16.1806 42.5347 16.3422 42.3896L17.652 41.2138C18.1986 40.7232 18.8147 40.3292 19.4754 40.0411C19.4828 40.0382 19.4901 40.0353 19.4974 40.0321C20.3401 39.6683 21.2545 39.476 22.1897 39.476H24.6089C27.1602 39.476 29.473 40.8841 30.6442 43.1507C30.7954 43.4432 31.0971 43.627 31.4264 43.627H40.9442C42.7555 43.627 44.229 45.1005 44.229 46.9118V47.3744C44.229 47.6602 43.9967 47.8925 43.7109 47.8925H29.0513C28.5649 47.8925 28.1708 48.2868 28.1708 48.773C28.1708 49.2593 28.5649 49.6535 29.0513 49.6535H43.7109C44.9418 49.6535 45.9455 48.6719 45.9861 47.4506L55.7079 42.4423C56.4951 42.0367 57.4701 42.313 57.9274 43.0714C58.3859 43.8316 58.1741 44.8238 57.4452 45.3304L42.0866 56.0043C38.3423 58.6065 33.4798 58.9622 29.3969 56.9327L26.5754 55.5303C26.1397 55.3138 25.6114 55.4914 25.395 55.9268C25.1786 56.3623 25.3561 56.8908 25.7916 57.1073L28.6132 58.5097C30.6203 59.5074 32.7922 59.9998 34.9562 59.9998C37.8151 59.9998 40.6601 59.1402 43.0915 57.4504L58.4501 46.7765C59.9393 45.7419 60.3719 43.715 59.4355 42.1623ZM18.0232 2.27378C18.0232 1.99097 18.2532 1.76098 18.5359 1.76098H27.3029C27.5856 1.76098 27.8157 1.99097 27.8157 2.27378V4.07691C27.8157 4.35973 27.5856 4.58971 27.3029 4.58971H18.5359C18.2532 4.58971 18.0232 4.35973 18.0232 4.07691V2.27378ZM16.9077 23.5644L15.5292 21.5204L35.333 8.16392C35.7516 7.88158 36.2927 7.88158 36.7113 8.16392L56.5151 21.5204L55.1366 23.5644L36.7986 11.1968C36.3269 10.8785 35.717 10.8785 35.2454 11.1968L18.6565 22.3849C18.6548 22.386 18.6532 22.387 18.6516 22.3882L16.9077 23.5644ZM31.9433 41.8662C31.688 41.4401 31.3986 41.0417 31.0805 40.6729V37.8865C31.0805 35.1618 33.2973 32.9451 36.0221 32.9451C38.7468 32.9451 40.9635 35.1618 40.9635 37.8865V41.8668C40.9571 41.8668 40.9506 41.8663 40.9442 41.8663H31.9433V41.8662Z" fill="#C7954B"/>
<path d="M8.18115 50.5704C8.18115 48.9896 6.89517 47.7036 5.31439 47.7036C3.73361 47.7036 2.44751 48.9897 2.44751 50.5704C2.44751 52.151 3.73361 53.4371 5.31439 53.4371C6.89517 53.4371 8.18115 52.1511 8.18115 50.5704ZM4.20849 50.5704C4.20849 49.9606 4.70462 49.4646 5.31439 49.4646C5.92404 49.4646 6.42017 49.9607 6.42017 50.5704C6.42017 51.18 5.92404 51.6762 5.31439 51.6762C4.7045 51.6762 4.20849 51.1801 4.20849 50.5704Z" fill="#C7954B"/>
<path d="M28.2662 21.4036C27.1628 21.4036 26.2649 22.3013 26.2649 23.4049V26.713C26.2649 27.8166 27.1626 28.7143 28.2662 28.7143H31.5745C32.6779 28.7143 33.5758 27.8166 33.5758 26.713V23.4049C33.5758 22.3013 32.678 21.4036 31.5745 21.4036H28.2662ZM31.8148 23.405V26.7132C31.8148 26.8457 31.707 26.9535 31.5745 26.9535H28.2662C28.1336 26.9535 28.0259 26.8457 28.0259 26.7132V23.405C28.0259 23.2724 28.1336 23.1647 28.2662 23.1647H31.5745C31.707 23.1645 31.8148 23.2724 31.8148 23.405Z" fill="#C7954B"/>
<path d="M40.4696 21.4036C39.3661 21.4036 38.4683 22.3013 38.4683 23.4049V26.713C38.4683 27.8166 39.366 28.7143 40.4696 28.7143H43.7779C44.8813 28.7143 45.7792 27.8166 45.7792 26.713V23.4049C45.7792 22.3013 44.8814 21.4036 43.7779 21.4036H40.4696ZM44.0181 23.405V26.7132C44.0181 26.8457 43.9103 26.9535 43.7777 26.9535H40.4694C40.3369 26.9535 40.2291 26.8457 40.2291 26.7132V23.405C40.2291 23.2724 40.3369 23.1647 40.4694 23.1647H43.7777C43.9103 23.1645 44.0181 23.2724 44.0181 23.405Z" fill="#C7954B"/>
</g>
<defs>
<clipPath id="clip0_62_93">
<rect width="60" height="60" fill="white"/>
</clipPath>
</defs>
</svg>
