<svg width="60" height="60" viewBox="0 0 60 60" fill="none" xmlns="http://www.w3.org/2000/svg">
<path d="M52.9274 42.1086H51.1642C51.2642 41.0481 50.909 39.9523 50.0988 39.142L42.0294 31.0727L43.1252 29.9768C43.4687 29.6333 43.4687 29.0764 43.1252 28.733C42.7817 28.3895 42.2248 28.3895 41.8814 28.733L38.7328 31.8816C37.8344 32.7801 36.6398 33.2749 35.3692 33.2749H33.2349C31.9644 33.2749 30.7698 32.7801 29.8713 31.8816C29.5278 31.5381 28.9709 31.5381 28.6275 31.8816L25.1284 35.3808C24.1632 36.346 22.5925 36.3461 21.6272 35.3808C21.1597 34.9132 20.9021 34.2914 20.9021 33.6302C20.9021 32.969 21.1595 32.3473 21.6272 31.8796L29.6551 23.8518C30.3695 23.1373 31.3192 22.744 32.3296 22.744H37.6974C38.1831 22.744 38.5769 22.3502 38.5769 21.8644C38.5769 21.3787 38.1831 20.9849 37.6974 20.9849H32.3296C30.8494 20.9849 29.458 21.5613 28.4113 22.6078L20.3834 30.6357C19.5836 31.4355 19.1431 32.499 19.1431 33.6301C19.1431 34.7613 19.5836 35.8247 20.3834 36.6246C21.209 37.4502 22.2935 37.863 23.3779 37.863C24.4624 37.863 25.5468 37.4502 26.3723 36.6246L29.291 33.706C30.4193 34.5675 31.7913 35.0339 33.235 35.0339H35.3693C37.1098 35.0339 38.7461 34.3561 39.9767 33.1255L40.7856 32.3166L48.855 40.386C49.6119 41.1429 49.6119 42.3745 48.855 43.1314C48.0981 43.8883 46.8664 43.8883 46.1095 43.1314L41.1534 38.1751C40.8099 37.8315 40.2529 37.8316 39.9095 38.1751C39.566 38.5186 39.566 39.0755 39.9095 39.4189L45.5755 45.0851C45.9421 45.4517 46.1441 45.9392 46.1441 46.4578C46.1441 46.9764 45.9422 47.4639 45.5755 47.8305C45.2088 48.1971 44.7214 48.3991 44.2028 48.3991C43.6842 48.3991 43.1967 48.1971 42.8301 47.8305L35.6205 40.621C35.277 40.2775 34.7201 40.2775 34.3767 40.621C34.0332 40.9645 34.0332 41.5214 34.3767 41.8648L39.7014 47.1895C40.4571 47.9465 40.4569 49.1772 39.7003 49.9337C38.9434 50.6907 37.7118 50.6906 36.9549 49.9337L31.66 44.6389C31.3167 44.2954 30.7597 44.2954 30.4162 44.6389C30.0727 44.9824 30.0727 45.5393 30.4162 45.8827L34.9446 50.4112C35.7015 51.168 35.7015 52.3997 34.9446 53.1566C34.1877 53.9135 32.9562 53.9135 32.1992 53.1566L30.7848 51.7422C30.9367 50.6339 30.588 49.4694 29.7378 48.6192C28.9391 47.8205 27.8635 47.4648 26.8174 47.5503C26.9029 46.5042 26.5472 45.4285 25.7485 44.6299C24.9504 43.8318 23.8754 43.4761 22.8299 43.561C22.838 43.4605 22.8431 43.3593 22.8431 43.2572C22.8431 42.2688 22.4583 41.3395 21.7593 40.6407C21.0604 39.9417 20.1312 39.5568 19.1428 39.5568C19.0407 39.5568 18.9395 39.562 18.839 39.5701C18.9239 38.5246 18.5682 37.4496 17.77 36.6515C16.3272 35.2086 13.9796 35.2086 12.5369 36.6515L12.4447 36.7436C12.1012 37.0871 12.1012 37.6441 12.4447 37.9875C12.7882 38.331 13.3451 38.331 13.6885 37.9875L13.7807 37.8953C14.5376 37.1384 15.7692 37.1384 16.5261 37.8953C16.8927 38.2619 17.0948 38.7495 17.0948 39.268C17.0948 39.7865 16.8928 40.2741 16.5261 40.6407L13.6913 43.4755C12.9344 44.2324 11.703 44.2324 10.9459 43.4755C10.189 42.7186 10.189 41.487 10.9459 40.7301L11.038 40.638C11.3815 40.2945 11.3815 39.7376 11.038 39.3942C10.6945 39.0507 10.1375 39.0507 9.79414 39.3942L9.70208 39.4862C8.56427 40.624 8.32456 42.3243 8.98131 43.7001H0.879566C0.393811 43.7001 0 44.0939 0 44.5796C0 45.0654 0.393811 45.4592 0.879566 45.4592H10.7599C11.2526 45.6874 11.7856 45.8014 12.3185 45.8014C12.4199 45.8014 12.5213 45.7964 12.6224 45.7882C12.5369 46.8343 12.8926 47.91 13.6912 48.7087C14.4126 49.43 15.3602 49.7908 16.3079 49.7908C16.4086 49.7908 16.5095 49.7858 16.61 49.7776C16.6019 49.8781 16.5967 49.9793 16.5967 50.0814C16.5967 51.0698 16.9816 51.9991 17.6806 52.6979C18.3794 53.3969 19.3087 53.7818 20.2971 53.7818C20.3991 53.7818 20.5003 53.7766 20.6008 53.7685C20.5159 54.814 20.8716 55.889 21.6698 56.6871C22.3912 57.4085 23.3388 57.7692 24.2863 57.7692C25.2339 57.7692 26.1815 57.4085 26.903 56.6871L29.7378 53.8524C29.8512 53.739 29.9547 53.6193 30.0503 53.4955L30.9553 54.4005C31.6767 55.1219 32.6243 55.4826 33.5719 55.4826C34.5194 55.4826 35.467 55.122 36.1885 54.4005C36.8284 53.7607 37.1838 52.9427 37.2561 52.1047C37.5991 52.2079 37.9593 52.2616 38.3276 52.2616C39.316 52.2616 40.2453 51.8767 40.9443 51.1778C41.4563 50.6658 41.7856 50.0397 41.9342 49.3807C42.5804 49.8844 43.3703 50.1583 44.2028 50.1583C45.1912 50.1583 46.1205 49.7734 46.8193 49.0744C47.5183 48.3756 47.9032 47.4463 47.9032 46.4578C47.9032 46.1105 47.8546 45.7709 47.7627 45.4457C48.6147 45.3814 49.4486 45.0254 50.0988 44.3752C50.2576 44.2164 50.3978 44.0461 50.5217 43.8678H52.9274C53.4131 43.8678 53.8069 43.474 53.8069 42.9882C53.8069 42.5024 53.4131 42.1086 52.9274 42.1086ZM14.9351 47.4646C14.1783 46.7077 14.1783 45.4761 14.9351 44.7192L17.7699 41.8844C18.1365 41.5178 18.6242 41.3157 19.1426 41.3157C19.6611 41.3157 20.1486 41.5177 20.5153 41.8844C20.8821 42.2511 21.084 42.7385 21.084 43.2571C21.084 43.7757 20.8821 44.2632 20.5153 44.6298L17.6807 47.4646C16.9237 48.2216 15.6922 48.2215 14.9351 47.4646ZM20.2971 52.0225C19.7786 52.0225 19.2911 51.8206 18.9244 51.4538C18.5577 51.0871 18.3557 50.5997 18.3557 50.0811C18.3557 49.5625 18.5577 49.075 18.9244 48.7084L21.7591 45.8736C22.5161 45.1167 23.7477 45.1167 24.5045 45.8736C25.2614 46.6305 25.2614 47.8622 24.5045 48.6191L21.6697 51.4538C21.3031 51.8206 20.8156 52.0225 20.2971 52.0225ZM28.4938 52.6084L25.659 55.4432C24.902 56.2002 23.6705 56.2001 22.9136 55.4432C22.1567 54.6863 22.1567 53.4547 22.9136 52.6978L25.7484 49.863C26.115 49.4964 26.6025 49.2945 27.1211 49.2945C27.6397 49.2945 28.1272 49.4964 28.4938 49.8631C29.2507 50.6199 29.2507 51.8515 28.4938 52.6084Z" fill="#C7954B"/>
<path d="M40.5727 21.793C40.5128 22.275 40.855 22.7145 41.3371 22.7744C42.1696 22.8778 42.9538 23.2605 43.5451 23.8519L46.3753 26.6821C46.5402 26.8471 46.7639 26.9398 46.9972 26.9398H59.1203C59.6061 26.9398 59.9999 26.546 59.9999 26.0602C59.9999 25.5745 59.6061 25.1807 59.1203 25.1807H47.3616L44.7889 22.6081C43.922 21.7412 42.7732 21.1803 41.554 21.0288C41.0728 20.969 40.6327 21.3109 40.5727 21.793Z" fill="#C7954B"/>
<path d="M59.1204 42.1086H56.6757C56.19 42.1086 55.7961 42.5025 55.7961 42.9882C55.7961 43.474 56.19 43.8678 56.6757 43.8678H59.1204C59.6062 43.8678 60 43.474 60 42.9882C60 42.5025 59.6062 42.1086 59.1204 42.1086Z" fill="#C7954B"/>
<path d="M0.965747 27.3358H12.2107C12.42 27.3358 12.6225 27.2611 12.7817 27.1253L15.0177 25.2171C15.6769 24.6546 16.5171 24.3448 17.3836 24.3448H24.1149C24.6006 24.3448 24.9944 23.951 24.9944 23.4653C24.9944 22.9795 24.6006 22.5857 24.1149 22.5857H17.3836C16.0987 22.5857 14.853 23.0451 13.8758 23.879L11.8866 25.5768H0.965747C0.479993 25.5768 0.0861816 25.9706 0.0861816 26.4564C0.0861816 26.9421 0.479993 27.3358 0.965747 27.3358Z" fill="#C7954B"/>
<path d="M34.0777 14.9266H24.9892C24.5034 14.9266 24.1096 15.3204 24.1096 15.8062C24.1096 16.2919 24.5034 16.6858 24.9892 16.6858H29.1444V18.1185C29.1444 18.6043 29.5382 18.9981 30.0239 18.9981C30.5097 18.9981 30.9035 18.6043 30.9035 18.1185V16.6858H34.0777C35.1036 16.6858 35.9383 15.8511 35.9383 14.8252V11.829C35.9383 10.8031 35.1036 9.96846 34.0777 9.96846H25.9702C25.9143 9.96846 25.8688 9.92295 25.8688 9.86713V7.38488C25.8688 7.32894 25.9143 7.28344 25.9702 7.28344H35.0587C35.5445 7.28344 35.9383 6.88962 35.9383 6.40387C35.9383 5.91811 35.5445 5.5243 35.0587 5.5243H30.9621V4.1679C30.9621 3.68214 30.5683 3.28833 30.0826 3.28833C29.5968 3.28833 29.203 3.68214 29.203 4.1679V5.5243H25.9702C24.9443 5.5243 24.1096 6.35895 24.1096 7.38488V9.86725C24.1096 10.8932 24.9443 11.7277 25.9702 11.7277H34.0777C34.1336 11.7277 34.1791 11.7732 34.1791 11.8291V14.8253C34.1791 14.8811 34.1336 14.9266 34.0777 14.9266Z" fill="#C7954B"/>
<path d="M17.9502 9.85128C18 9.85128 18.0506 9.84694 18.1014 9.83826L19.2013 9.64769C19.68 9.56466 20.0008 9.10951 19.9178 8.63091C19.8349 8.15231 19.38 7.83168 18.9011 7.91436L17.8011 8.10493C17.3224 8.18796 17.0017 8.64311 17.0846 9.12171C17.1587 9.54953 17.5302 9.85128 17.9502 9.85128Z" fill="#C7954B"/>
<path d="M19.2873 3.83914L20.5172 4.67027C20.6682 4.7723 20.8394 4.8212 21.0089 4.8212C21.2912 4.8212 21.5684 4.68552 21.7385 4.43408C22.0104 4.03159 21.9046 3.48485 21.5023 3.21277L20.2724 2.38164C19.8698 2.10956 19.3231 2.21546 19.0511 2.61783C18.779 3.02032 18.8848 3.56706 19.2873 3.83914Z" fill="#C7954B"/>
<path d="M40.2474 8.63091C40.1645 9.10951 40.4853 9.56478 40.964 9.64769L42.0639 9.83826C42.1147 9.84706 42.1652 9.85128 42.2151 9.85128C42.635 9.85128 43.0066 9.54953 43.0807 9.12171C43.1636 8.64311 42.8428 8.18785 42.3641 8.10493L41.2642 7.91436C40.7857 7.83168 40.3303 8.15219 40.2474 8.63091Z" fill="#C7954B"/>
<path d="M39.1564 4.82123C39.3258 4.82123 39.497 4.77233 39.6481 4.6703L40.878 3.83917C41.2804 3.56721 41.3861 3.02047 41.1142 2.61786C40.8422 2.21537 40.2956 2.10959 39.8928 2.38167L38.663 3.2128C38.2605 3.48476 38.1548 4.0315 38.4268 4.43411C38.5968 4.68555 38.8741 4.82123 39.1564 4.82123Z" fill="#C7954B"/>
</svg>
