<svg width="60" height="60" viewBox="0 0 60 60" fill="none" xmlns="http://www.w3.org/2000/svg">
<path d="M10.2042 17.2291C10.1406 17.6757 10.2547 18.1203 10.5255 18.4812L11.8047 20.1857C12.1361 20.6272 12.6437 20.86 13.1575 20.86C13.5103 20.86 13.866 20.7501 14.1692 20.5226L14.9138 19.9637V39.3205H13.6707C13.1851 39.3205 12.7917 39.714 12.7917 40.1996C12.7917 40.6852 13.1851 41.0786 13.6707 41.0786H46.3027C46.7883 41.0786 47.1818 40.6852 47.1818 40.1996C47.1818 39.714 46.7883 39.3205 46.3027 39.3205H45.321V35.4773C45.321 34.9918 44.9276 34.5983 44.442 34.5983C43.9564 34.5983 43.5629 34.9918 43.5629 35.4773V39.3205H35.2631V36.6282C35.2631 33.7 32.8808 31.3176 29.9525 31.3176C27.0242 31.3176 24.6419 33.6999 24.6419 36.6282V39.3205H16.6719V18.6442L30.1173 8.55325L43.5628 18.6442V31.7312C43.5628 32.2168 43.9563 32.6103 44.4419 32.6103C44.9274 32.6103 45.3209 32.2168 45.3209 31.7312V19.9637L46.0654 20.5224V20.5226C46.8101 21.0814 47.8708 20.9303 48.4299 20.1856L49.7092 18.4812C50.2682 17.7365 50.117 16.6757 49.3721 16.1167L31.7706 2.90649C30.797 2.17606 29.4375 2.17595 28.4639 2.90661L10.8623 16.1167C10.5017 16.3874 10.2679 16.7825 10.2042 17.2291ZM26.3999 36.6283C26.3999 34.6694 27.9935 33.0758 29.9524 33.0758C31.9112 33.0758 33.5049 34.6694 33.5049 36.6283V39.3207H26.4V36.6283H26.3999ZM47.1206 19.1164L47.1201 19.116C47.1203 19.1161 47.1204 19.1162 47.1206 19.1164ZM29.5192 4.31273C29.8713 4.04843 30.3632 4.04831 30.7153 4.31273L48.2615 17.4812L47.0654 19.0748L30.645 6.7512C30.4886 6.63388 30.3029 6.57516 30.1173 6.57516C29.9316 6.57516 29.746 6.63388 29.5896 6.7512L13.1691 19.0749L11.973 17.4813L29.5192 4.31273Z" fill="#C7954B"/>
<path d="M20.5788 25.7112C20.0932 25.7112 19.6997 26.1046 19.6997 26.5902V28.9178C19.6997 29.7805 20.4014 30.4824 21.2642 30.4824H24.1731C25.0357 30.4824 25.7377 29.7806 25.7377 28.9178V21.4694C25.7377 20.6067 25.0359 19.9048 24.1731 19.9048H21.2642C20.4015 19.9048 19.6997 20.6066 19.6997 21.4694V22.8441C19.6997 23.3297 20.0932 23.7231 20.5788 23.7231C21.0643 23.7231 21.4578 23.3297 21.4578 22.8441V21.663H23.9796V28.7243H21.4578V26.5902C21.4578 26.1048 21.0643 25.7112 20.5788 25.7112Z" fill="#C7954B"/>
<path d="M35.7313 19.905C34.8687 19.905 34.1667 20.6069 34.1667 21.4696V28.9181C34.1667 29.7807 34.8686 30.4826 35.7313 30.4826H38.6403C39.5029 30.4826 40.2047 29.7808 40.2047 28.9181V21.4696C40.2047 20.607 39.503 19.905 38.6403 19.905H35.7313ZM38.4466 28.7244H35.9248V21.6631H38.4466V28.7244Z" fill="#C7954B"/>
<path d="M58.6364 23.3286H47.958C47.4724 23.3286 47.0789 23.7221 47.0789 24.2077C47.0789 24.6932 47.4724 25.0867 47.958 25.0867H58.2419V56.8957H11.4696C10.984 56.8957 10.5906 57.2892 10.5906 57.7748C10.5906 58.2603 10.984 58.6538 11.4696 58.6538H58.6364C59.3883 58.6538 60 58.0421 60 57.2902V24.6923C60 23.9404 59.3883 23.3286 58.6364 23.3286Z" fill="#C7954B"/>
<path d="M7.72353 56.8957H2.63444C2.1512 56.8957 1.75809 56.5026 1.75809 56.0193V25.9632C1.75809 25.4799 2.1512 25.0867 2.63456 25.0867H12.2766C12.7622 25.0867 13.1557 24.6932 13.1557 24.2077C13.1557 23.7221 12.7622 23.3286 12.2766 23.3286H2.63456C1.18179 23.3286 0 24.5104 0 25.9632V56.0193C0 57.472 1.18179 58.6538 2.63444 58.6538H7.72364C8.20923 58.6538 8.60269 58.2603 8.60269 57.7748C8.60269 57.2892 8.20911 56.8957 7.72353 56.8957Z" fill="#C7954B"/>
<path d="M37.678 43.448C36.6064 46.7998 33.5208 49.0517 29.9999 49.0517C26.4792 49.0517 23.3937 46.7998 22.322 43.448C22.1741 42.9856 21.6795 42.7304 21.217 42.8785C20.7546 43.0265 20.4996 43.5211 20.6475 43.9836C21.953 48.0665 25.7114 50.8098 29.9999 50.8098C34.2886 50.8098 38.0471 48.0665 39.3525 43.9836C39.5004 43.5212 39.2454 43.0263 38.783 42.8785C38.3202 42.7304 37.8258 42.9857 37.678 43.448Z" fill="#C7954B"/>
<path d="M51.3542 54.2585C51.3542 51.9129 53.2626 49.9967 55.6083 49.9868C56.0924 49.9847 56.4837 49.5918 56.4837 49.1078V32.8744C56.4837 32.3903 56.0924 31.9975 55.6083 31.9953C53.2626 31.9856 51.3542 30.0693 51.3542 27.7238C51.3542 27.2382 50.9608 26.8447 50.4752 26.8447H47.9578C47.4722 26.8447 47.0788 27.2382 47.0788 27.7238C47.0788 28.2094 47.4722 28.6028 47.9578 28.6028H49.6601C50.0446 31.2145 52.1148 33.2925 54.7255 33.6862V48.2959C52.1149 48.6897 50.0446 50.7677 49.6601 53.3794H10.3616C9.97686 50.7565 7.89716 48.6769 5.2742 48.292V33.6901C7.89716 33.3054 9.97686 31.2258 10.3616 28.6028H12.2764C12.762 28.6028 13.1555 28.2094 13.1555 27.7238C13.1555 27.2382 12.762 26.8447 12.2764 26.8447H9.54648C9.0609 26.8447 8.66744 27.2382 8.66744 27.7238C8.66744 30.0795 6.75088 31.9959 4.39516 31.9959C3.90957 31.9959 3.51611 32.3894 3.51611 32.875V49.1072C3.51611 49.5928 3.90957 49.9862 4.39516 49.9862C6.751 49.9862 8.66744 51.9028 8.66744 54.2584C8.66744 54.744 9.0609 55.1375 9.54648 55.1375H50.4752C50.9608 55.1376 51.3542 54.744 51.3542 54.2585Z" fill="#C7954B"/>
<path d="M4.14369 9.85582C3.65811 9.85582 3.26465 10.2493 3.26465 10.7349C3.26465 11.2204 3.65811 11.6139 4.14369 11.6139H6.84459V12.3791C6.84459 12.8647 7.23805 13.2582 7.72364 13.2582C8.20922 13.2582 8.60268 12.8647 8.60268 12.3791V11.6139H10.606C11.4753 11.6139 12.1825 10.9067 12.1825 10.0375V7.90703C12.1825 7.03772 11.4753 6.3305 10.606 6.3305H5.02274V4.69406H11.3036C11.7892 4.69406 12.1826 4.3006 12.1826 3.81502C12.1826 3.32943 11.7892 2.93597 11.3036 2.93597H8.64429V2.22524C8.64429 1.73965 8.25083 1.34619 7.76524 1.34619C7.27966 1.34619 6.8862 1.73965 6.8862 2.22524V2.93597H4.84119C3.97187 2.93597 3.26465 3.6432 3.26465 4.51251V6.51205C3.26465 7.38136 3.97187 8.08859 4.84119 8.08859H10.4245V9.85582H4.14369Z" fill="#C7954B"/>
<path d="M53.089 17.4314C52.6034 17.4314 52.21 17.8248 52.21 18.3104C52.21 18.796 52.6034 19.1895 53.089 19.1895H54.6178V19.9546C54.6178 20.4402 55.0113 20.8336 55.4969 20.8336C55.9825 20.8336 56.3759 20.4402 56.3759 19.9546V19.1895H57.2073C58.0766 19.1895 58.7838 18.4822 58.7838 17.6129V15.4825C58.7838 14.6132 58.0766 13.9059 57.2073 13.9059H53.9681V12.2695H57.9048C58.3904 12.2695 58.7838 11.876 58.7838 11.3905C58.7838 10.9049 58.3904 10.5114 57.9048 10.5114H56.4177V9.80068C56.4177 9.31509 56.0242 8.92163 55.5386 8.92163C55.053 8.92163 54.6596 9.31509 54.6596 9.80068V10.5114H53.7866C52.9173 10.5114 52.2101 11.2186 52.2101 12.088V14.0875C52.2101 14.9568 52.9173 15.664 53.7866 15.664H57.0258V17.4314H53.089Z" fill="#C7954B"/>
</svg>
